<svg id="Capa_1" enable-background="new 0 0 513 513" height="512" viewBox="0 0 513 513" width="512" xmlns="http://www.w3.org/2000/svg"><g><g><path d="m505.5 328.49c0 50.79-41.41 91.96-92.5 91.96-2.97 0-5.9-.14-8.81-.41-.66-.07-1.29.23-1.66.77-14.4 20.96-38.6 34.72-66.06 34.72-32.743 0-60.879-19.558-73.255-47.555-1.184-2.678-3.787-4.445-6.715-4.445-2.928 0-5.531 1.768-6.715 4.445-12.376 27.997-40.512 47.555-73.255 47.555-27.46 0-51.66-13.76-66.06-34.72-.37-.54-1-.84-1.66-.77-2.91.27-5.84.41-8.81.41-51.09 0-92.5-41.17-92.5-91.96 0-25.93 10.81-49.36 28.18-66.08.41-.4.61-.96.54-1.53-.33-2.58-.51-5.21-.51-7.88 0-25.7 15.6-47.77 37.9-57.39.68-.29 1.13-.96 1.11-1.7 0-.3-.01-.6-.01-.91 0-27.85 18.33-51.87 43.63-59.55.6-.18 1.05-.65 1.22-1.25 5.86-20.61 24.92-35.73 47.54-35.73h.03c.93 0 1.71-.7 1.84-1.62 3.1-21.14 21.41-37.38 43.53-37.38 12.66 0 24.06 5.31 32.09 13.82 3.11 3.29 7.38 5.24 11.91 5.24 2.26 0 4.46-.49 6.49-1.39 2.02-.89 3.87-2.21 5.42-3.85 8.03-8.51 19.43-13.82 32.09-13.82 22.12 0 40.43 16.24 43.53 37.38.13.92.91 1.62 1.84 1.62h.03c22.62 0 41.69 15.12 47.54 35.75.17.59.61 1.06 1.2 1.24 25.32 8.08 43.65 31.68 43.65 59.54 0 .31-.01.61-.01.91-.02.74.43 1.41 1.11 1.7 22.3 9.62 37.9 31.69 37.9 57.39 0 2.67-.18 5.3-.51 7.88-.07.57.13 1.13.54 1.53 17.37 16.72 28.18 40.15 28.18 66.08z" fill="#dc4955"/><path d="m244.59 71.29c.5.53 1.04 1.03 1.6 1.49-4.07-1.14-8.38-1.75-12.84-1.75-23.07 0-42.17 16.38-45.41 37.7-.13.93-.95 1.64-1.92 1.64h-.03c-23.6 0-43.48 15.25-49.59 36.04-.18.6-.65 1.08-1.27 1.26-26.4 7.74-45.52 31.97-45.52 60.06 0 .31.01.62.01.92.02.75-.45 1.42-1.16 1.71-23.26 9.71-39.53 31.97-39.53 57.89 0 2.69.19 5.35.53 7.95.07.57-.14 1.14-.56 1.54-18.12 16.87-29.4 40.5-29.4 66.65 0 17.49 5.03 33.84 13.78 47.8-15.97-16.53-25.78-38.97-25.78-63.7 0-25.93 10.81-49.36 28.18-66.08.41-.4.61-.96.54-1.53-.33-2.58-.51-5.21-.51-7.88 0-25.7 15.6-47.77 37.9-57.39.68-.29 1.13-.96 1.11-1.7 0-.3-.01-.6-.01-.91 0-27.85 18.33-51.87 43.63-59.55.6-.18 1.05-.65 1.22-1.25 5.86-20.61 24.92-35.73 47.54-35.73h.03c.93 0 1.71-.7 1.84-1.62 3.1-21.14 21.41-37.38 43.53-37.38 12.66 0 24.06 5.31 32.09 13.82z" fill="#d82f3c"/><g fill="#ffd064"><circle cx="174.5" cy="147.53" r="20"/><circle cx="124.5" cy="216.53" r="20"/><circle cx="94.5" cy="297.53" r="20"/><circle cx="176.5" cy="400.53" r="20"/><circle cx="336.5" cy="400.53" r="20"/><circle cx="388.5" cy="216.53" r="20"/><circle cx="418.5" cy="297.53" r="20"/><circle cx="338.5" cy="147.53" r="20"/></g><g fill="#ffc250"><path d="m193.79 152.82c-2.32 8.48-10.07 14.71-19.29 14.71-11.05 0-20-8.95-20-20 0-9.22 6.23-16.97 14.71-19.29-.46 1.69-.71 3.46-.71 5.29 0 11.05 8.95 20 20 20 1.83 0 3.6-.25 5.29-.71z"/><path d="m143.79 221.82c-2.32 8.48-10.07 14.71-19.29 14.71-11.05 0-20-8.95-20-20 0-9.22 6.23-16.97 14.71-19.29-.46 1.69-.71 3.46-.71 5.29 0 11.05 8.95 20 20 20 1.83 0 3.6-.25 5.29-.71z"/><path d="m113.79 302.82c-2.32 8.48-10.07 14.71-19.29 14.71-11.05 0-20-8.95-20-20 0-9.22 6.23-16.97 14.71-19.29-.46 1.69-.71 3.46-.71 5.29 0 11.05 8.95 20 20 20 1.83 0 3.6-.25 5.29-.71z"/><path d="m195.79 405.82c-2.32 8.48-10.07 14.71-19.29 14.71-11.05 0-20-8.95-20-20 0-9.22 6.23-16.97 14.71-19.29-.46 1.69-.71 3.46-.71 5.29 0 11.05 8.95 20 20 20 1.83 0 3.6-.25 5.29-.71z"/><path d="m355.79 405.82c-2.32 8.48-10.07 14.71-19.29 14.71-11.05 0-20-8.95-20-20 0-9.22 6.23-16.97 14.71-19.29-.46 1.69-.71 3.46-.71 5.29 0 11.05 8.95 20 20 20 1.83 0 3.6-.25 5.29-.71z"/><path d="m407.79 221.82c-2.32 8.48-10.07 14.71-19.29 14.71-11.05 0-20-8.95-20-20 0-9.22 6.23-16.97 14.71-19.29-.46 1.69-.71 3.46-.71 5.29 0 11.05 8.95 20 20 20 1.83 0 3.6-.25 5.29-.71z"/><path d="m437.79 302.82c-2.32 8.48-10.07 14.71-19.29 14.71-11.05 0-20-8.95-20-20 0-9.22 6.23-16.97 14.71-19.29-.46 1.69-.71 3.46-.71 5.29 0 11.05 8.95 20 20 20 1.83 0 3.6-.25 5.29-.71z"/><path d="m357.79 152.82c-2.32 8.48-10.07 14.71-19.29 14.71-11.05 0-20-8.95-20-20 0-9.22 6.23-16.97 14.71-19.29-.46 1.69-.71 3.46-.71 5.29 0 11.05 8.95 20 20 20 1.83 0 3.6-.25 5.29-.71z"/></g></g><g><path d="m130.043 431.249c-5.118-4.262-9.624-9.203-13.391-14.685-3.708-5.84-10.963-3.43-16.652-3.614-46.869 0-85-37.889-85-84.46 0-23.063 9.191-44.611 25.912-60.707 4.323-3.829 2.172-9.838 2.298-14.783 0-21.934 13.099-41.758 33.344-50.491 3.812-1.598 5.973-5.451 5.656-9.509 0-23.99 15.753-45.526 38.283-52.365 3.055-.916 5.402-3.301 6.281-6.384 5.069-17.829 21.651-30.281 40.355-30.281 4.633 0 8.616-3.47 9.261-8.031 1.236-8.434 5.481-16.208 11.954-21.889 3.112-2.733 3.421-7.472.688-10.585-2.734-3.112-7.473-3.421-10.585-.688-7.951 6.98-13.526 16.211-16.002 26.384-22.396 1.842-41.873 16.852-49.182 38.065-26.425 9.361-44.891 34.649-46.002 63.061-23.842 11.801-39.051 36.026-39.051 62.713 0 1.977.089 3.985.264 5.989-18.384 18.693-28.474 43.263-28.474 69.501 0 56.888 48.301 102.808 106.222 99.27 4.128 5.544 8.9 10.585 14.224 15.017 3.164 2.639 7.901 2.231 10.563-.965 2.649-3.183 2.218-7.913-.966-10.563z"/><path d="m511.16 309.42c-.794-4.064-4.733-6.723-8.799-5.922-4.065.794-6.717 4.733-5.922 8.799 1.035 5.301 1.561 10.749 1.561 16.193 0 46.571-38.131 84.46-85 84.46-5.687.184-12.936-2.225-16.651 3.612-13.537 19.704-35.922 31.468-59.879 31.468-28.764 0-54.825-16.913-66.396-43.087-1.293-2.925-3.447-5.284-6.074-6.842v-45.071h65v21.048c-11.528 3.274-20 13.889-20 26.452 0 15.163 12.337 27.5 27.5 27.5s27.5-12.337 27.5-27.5c0-12.563-8.472-23.178-20-26.452v-23.548c0-6.893-5.607-12.5-12.5-12.5h-67.5v-74h47v28.5c0 6.893 5.607 12.5 12.5 12.5h68.548c3.274 11.528 13.889 20 26.452 20 15.163 0 27.5-12.337 27.5-27.5s-12.337-27.5-27.5-27.5c-12.563 0-23.178 8.472-26.452 20h-66.048v-66h36.048c3.274 11.528 13.889 20 26.452 20 15.163 0 27.5-12.337 27.5-27.5s-12.337-27.5-27.5-27.5c-12.563 0-23.178 8.472-26.452 20h-38.548c-6.893 0-12.5 5.607-12.5 12.5v27.5h-47v-27c0-4.143-3.357-7.5-7.5-7.5s-7.5 3.357-7.5 7.5v27h-47v-27.5c0-6.893-5.607-12.5-12.5-12.5h-38.548c-3.274-11.528-13.889-20-26.452-20-15.163 0-27.5 12.337-27.5 27.5s12.337 27.5 27.5 27.5c12.563 0 23.178-8.472 26.452-20h36.048v66h-66.048c-3.274-11.528-13.889-20-26.452-20-15.163 0-27.5 12.337-27.5 27.5s12.337 27.5 27.5 27.5c12.563 0 23.178-8.472 26.452-20h68.548c6.893 0 12.5-5.607 12.5-12.5v-28.5h47v74h-67.5c-6.893 0-12.5 5.607-12.5 12.5v23.548c-11.528 3.274-20 13.889-20 26.452 0 15.163 12.337 27.5 27.5 27.5s27.5-12.337 27.5-27.5c0-12.563-8.472-23.178-20-26.452v-21.048h65v45.071c-2.627 1.558-4.781 3.917-6.074 6.842-11.57 26.174-37.632 43.087-66.396 43.087-6.108 0-12.176-.756-18.032-2.246-4.017-1.024-8.098 1.405-9.118 5.419-1.021 4.015 1.405 8.097 5.419 9.118 7.064 1.798 14.376 2.709 21.731 2.709 34.566 0 65.907-20.266 79.972-51.692 14.042 31.415 45.391 51.692 79.968 51.692 27.787 0 53.823-13.123 70.309-35.271 57.932 3.546 106.221-42.38 106.221-99.269 0-6.408-.619-12.824-1.84-19.07zm-162.16 91.11c0 6.893-5.607 12.5-12.5 12.5s-12.5-5.607-12.5-12.5 5.607-12.5 12.5-12.5 12.5 5.608 12.5 12.5zm69.5-115.5c6.893 0 12.5 5.607 12.5 12.5s-5.607 12.5-12.5 12.5-12.5-5.607-12.5-12.5 5.607-12.5 12.5-12.5zm-30-81c6.893 0 12.5 5.607 12.5 12.5s-5.607 12.5-12.5 12.5-12.5-5.607-12.5-12.5 5.607-12.5 12.5-12.5zm-264 25c-6.893 0-12.5-5.607-12.5-12.5s5.607-12.5 12.5-12.5 12.5 5.607 12.5 12.5-5.607 12.5-12.5 12.5zm-30 81c-6.893 0-12.5-5.607-12.5-12.5s5.607-12.5 12.5-12.5 12.5 5.607 12.5 12.5-5.607 12.5-12.5 12.5zm94.5 90.5c0 6.893-5.607 12.5-12.5 12.5s-12.5-5.607-12.5-12.5 5.607-12.5 12.5-12.5 12.5 5.608 12.5 12.5z"/><path d="m200.952 140.03c-3.274-11.528-13.889-20-26.452-20-15.163 0-27.5 12.337-27.5 27.5s12.337 27.5 27.5 27.5c12.563 0 23.178-8.472 26.452-20h48.048v32c0 4.143 3.357 7.5 7.5 7.5s7.5-3.357 7.5-7.5v-32h48.048c3.274 11.528 13.889 20 26.452 20 15.163 0 27.5-12.337 27.5-27.5s-12.337-27.5-27.5-27.5c-12.563 0-23.178 8.472-26.452 20h-48.048v-57.246c3.728-1.25 7.12-3.446 9.865-6.346 6.978-7.396 16.437-11.468 26.635-11.468 17.996 0 33.521 13.313 36.104 30.93.65 4.601 4.634 8.07 9.297 8.07 18.684 0 35.266 12.458 40.335 30.337.883 3.045 3.207 5.41 6.124 6.299 22.986 7.335 38.431 28.391 38.431 52.395-.318 4.053 1.846 7.912 5.629 9.497 20.272 8.745 33.371 28.569 33.371 50.503.131 4.945-2.047 10.941 2.329 14.813 4.608 4.438 8.714 9.391 12.202 14.723 2.281 3.494 6.963 4.42 10.382 2.171 3.467-2.268 4.438-6.915 2.171-10.382-3.597-5.498-7.749-10.653-12.349-15.336.176-2.015.265-4.02.265-5.989 0-26.68-15.197-50.896-39.052-62.711-1.083-28.404-19.138-53.15-45.986-63-7.285-21.24-26.765-36.272-49.196-38.126-5.516-22.643-26.257-39.194-50.057-39.194-14.162 0-27.847 5.895-37.542 16.17-3.408 3.774-9.436 3.825-12.913.003-8.604-9.117-20.207-14.78-32.673-15.946-4.122-.375-7.78 2.646-8.166 6.77-.385 4.124 2.646 7.78 6.77 8.166 8.835.825 17.06 4.841 23.164 11.311 2.758 2.918 6.166 5.076 9.86 6.331v57.257h-48.048zm-26.452 20c-6.893 0-12.5-5.607-12.5-12.5s5.607-12.5 12.5-12.5 12.5 5.607 12.5 12.5-5.607 12.5-12.5 12.5zm164-25c6.893 0 12.5 5.607 12.5 12.5s-5.607 12.5-12.5 12.5-12.5-5.607-12.5-12.5 5.607-12.5 12.5-12.5z"/></g></g></svg>