<svg id="desktop-cover" width="2055" height="1388" viewBox="0 0 2055 1388" fill="none" xmlns="http://www.w3.org/2000/svg">
                    <path d="M1 13.3001H1256.9C1256.9 13.3001 1293.6 11.7 1293.6 45.5C1293.6 78.5 1293.6 941 1293.6 941C1293.6 941 1293.6 962.8 1267.9 962.8C1242.2 962.8 1 962.8 1 962.8" fill="black"/>
                    <path d="M1 6.00005H1271.1C1271.1 6.00005 1308.2 4.30009 1308.2 39.8001C1308.2 74.4001 1308.2 978.9 1308.2 978.9" fill="black"/>
                    <path d="M1 0H1277.9C1277.9 0 1311 1.5 1315.2 34C1315.2 68.8 1315.2 978.9 1315.2 978.9" fill="black"/>
                    <path d="M1 76.2H1231.07V908.775H1" fill="black"/>
                    <path d="M799 1019.8C799 1019.8 807.1 1029.1 807.1 1050.1C807.1 1071.1 807.1 1080.2 807.1 1080.2C807.1 1080.2 808.5 1094.9 794.3 1105C780 1115.1 740.5 1142.1 740.5 1142.1C740.5 1142.1 727.7 1150.6 694.8 1150.6C661.9 1150.6 228.8 1150.6 228.8 1150.6C228.8 1150.6 183.3 1152.3 228.8 1133.2C274.3 1114.2 310.8 1099 310.8 1099C310.8 1099 320.1 1096.9 320.1 1062.6C320.1 1028.3 307.9 1019.7 307.9 1019.7" fill="black"/>
                    <path d="M805.4 1090.8C805.4 1090.8 811 1102 787.6 1118.3C764.2 1134.7 740.4 1150.6 740.4 1150.6C740.4 1150.6 730 1156.8 711.4 1156.8" fill="black"/>
                    <path d="M1836.8 1276.1L1223.2 1275.3L1226.5 1229.3L1234.8 1229.7L1248.7 1208.6V1204.9L1257.2 1202.2L1277.7 1181.3L1279.1 1174.9L1284.7 1174.7C1284.7 1174.7 1284.5 1137 1287.8 1137L1932.4 1139.5V1171.6L1944.2 1186.3L1951.4 1186.9L1952.6 1193.1L1987.2 1235.3L1991.8 1237.2L1992 1241.3L1984.5 1275.8L1848.8 1276.1" fill="black"/>
                    <path d="M1827.8 1241.3C1827.8 1241.3 1231.7 1242.1 1226.5 1229.3Z" fill="black"/>
                    <path d="M1933.7 1173.1L1284.7 1172.1Z" fill="black"/>
                    <path d="M2054 1287.8L2054.3 1306.7C2054.3 1306.7 2052.2 1316.6 2022.4 1316.6C1992.6 1316.6 1854 1316.6 1854 1316.6" fill="black"/>
                    <path d="M1932.4 1146.9L2052.9 1284.8C2052.9 1284.8 2067.8 1294.7 1996.4 1294.7C1925 1294.7 1851.8 1294.7 1851.8 1294.7" fill="black"/>
                    <path d="M901.9 987.5C901.9 987.5 904.8 978.9 916.8 978.9C928.8 978.9 1335 978.9 1335 978.9C1335 978.9 1352 980.5 1352 994.5" fill="black"/>
                    <path d="M880 1054.6V1030.5L889.9 997.8C889.9 997.8 894.9 986.7 908.1 986.7C921.3 986.7 1337 986.7 1337 986.7C1337 986.7 1356 991.2 1356 1002.8C1356 1014.4 1359.3 1136.9 1359.3 1136.9" fill="black"/>
                    <path d="M863.2 1126C863.2 1126 862.2 1113 884.9 1113C907.7 1113 1317.6 1113 1317.6 1113C1317.6 1113 1339.1 1112.9 1339.1 1134.5C1339.1 1135.8 1339.1 1137.2 1339.1 1137.2" fill="black"/>
                    <path d="M915.2 1024.5C915.2 1028.48 922.408 1031.7 931.3 1031.7C940.192 1031.7 947.4 1028.48 947.4 1024.5C947.4 1020.52 940.192 1017.3 931.3 1017.3C922.408 1017.3 915.2 1020.52 915.2 1024.5Z" fill="black"/>
                    <path d="M989.3 1023.7C989.3 1027.68 996.508 1030.9 1005.4 1030.9C1014.29 1030.9 1021.5 1027.68 1021.5 1023.7C1021.5 1019.72 1014.29 1016.5 1005.4 1016.5C996.508 1016.5 989.3 1019.72 989.3 1023.7Z" fill="black"/>
                    <path d="M1063.4 1024.1C1063.4 1028.08 1070.61 1031.3 1079.5 1031.3C1088.39 1031.3 1095.6 1028.08 1095.6 1024.1C1095.6 1020.12 1088.39 1016.9 1079.5 1016.9C1070.61 1016.9 1063.4 1020.12 1063.4 1024.1Z" fill="black"/>
                    <path d="M1131.8 1024.1C1131.8 1028.08 1139.01 1031.3 1147.9 1031.3C1156.79 1031.3 1164 1028.08 1164 1024.1C1164 1020.12 1156.79 1016.9 1147.9 1016.9C1139.01 1016.9 1131.8 1020.12 1131.8 1024.1Z" fill="black"/>
                    <path d="M1198.4 1024.1C1198.4 1028.08 1205.61 1031.3 1214.5 1031.3C1223.39 1031.3 1230.6 1028.08 1230.6 1024.1C1230.6 1020.12 1223.39 1016.9 1214.5 1016.9C1205.61 1016.9 1198.4 1020.12 1198.4 1024.1Z" fill="black"/>
                    <path d="M1281.4 1058.1C1281.4 1055.95 1286.01 1054.2 1291.7 1054.2C1297.39 1054.2 1302 1055.95 1302 1058.1C1302 1060.25 1297.39 1062 1291.7 1062C1286.01 1062 1281.4 1060.25 1281.4 1058.1Z" fill="black"/>
                    <path d="M1273.7 1059.9C1273.7 1056.7 1281.76 1054.1 1291.7 1054.1C1301.64 1054.1 1309.7 1056.7 1309.7 1059.9C1309.7 1063.1 1301.64 1065.7 1291.7 1065.7C1281.76 1065.7 1273.7 1063.1 1273.7 1059.9Z" fill="black"/>
                    <path d="M1273.7 1059.9C1273.7 1059.9 1273.7 1064.9 1273.7 1071.5C1281.4 1079.2 1302.9 1078.7 1309.3 1072.3C1309.3 1067.3 1309.3 1059.9 1309.3 1059.9" fill="black"/>
                    <path d="M1324.2 1000.5C1324.2 998.346 1320.13 996.6 1315.1 996.6C1310.07 996.6 1306 998.346 1306 1000.5C1306 1002.65 1310.07 1004.4 1315.1 1004.4C1320.13 1004.4 1324.2 1002.65 1324.2 1000.5Z" fill="black"/>
                    <path d="M911.5 1001.4C911.5 999.246 915.574 997.5 920.6 997.5C925.626 997.5 929.7 999.246 929.7 1001.4C929.7 1003.55 925.626 1005.3 920.6 1005.3C915.574 1005.3 911.5 1003.55 911.5 1001.4Z" fill="black"/>
                    <path d="M915.2 1024.9L910.4 1066.5C910.4 1066.5 917.5 1075.3 931.4 1075.3C945.2 1075.3 952.7 1065.4 952.7 1065.4L947.6 1024.9" fill="black"/>
                    <path d="M989.1 1024.5L984.3 1066.1C984.3 1066.1 991.4 1074.9 1005.3 1074.9C1019.1 1074.9 1026.6 1065 1026.6 1065L1021.5 1024.5" fill="black"/>
                    <path d="M1063.2 1024.9L1058.4 1066.5C1058.4 1066.5 1065.5 1075.3 1079.4 1075.3C1093.2 1075.3 1100.7 1065.4 1100.7 1065.4L1095.6 1024.9" fill="black"/>
                    <path d="M1131.6 1024.9L1126.8 1066.5C1126.8 1066.5 1133.9 1075.3 1147.8 1075.3C1161.6 1075.3 1169.1 1065.4 1169.1 1065.4L1164 1024.9" fill="black"/>
                    <path d="M1198.2 1024.9L1193.4 1066.5C1193.4 1066.5 1200.5 1075.3 1214.4 1075.3C1228.3 1075.3 1235.7 1065.4 1235.7 1065.4L1230.6 1024.9" fill="black"/>
                    <path d="M1188.4 993.9C1188.4 994.8 1187.7 995.6 1186.7 995.6H1162.5C1161.6 995.6 1160.8 994.9 1160.8 993.9C1160.8 993 1161.5 992.2 1162.5 992.2H1186.7C1187.7 992.3 1188.4 993 1188.4 993.9Z" fill="black"/>
                    <path d="M1231.5 994.5C1231.5 995.4 1230.8 996.2 1229.8 996.2H1205.6C1204.7 996.2 1203.9 995.5 1203.9 994.5C1203.9 993.6 1204.6 992.8 1205.6 992.8H1229.8C1230.8 992.9 1231.5 993.6 1231.5 994.5Z" fill="black"/>
                    <path d="M1274.5 993.9C1274.5 994.8 1273.8 995.6 1272.8 995.6H1248.6C1247.7 995.6 1246.9 994.9 1246.9 993.9C1246.9 993 1247.6 992.2 1248.6 992.2H1272.8C1273.8 992.3 1274.5 993 1274.5 993.9Z" fill="black"/>
                    <path d="M1316.4 993.9C1316.4 994.8 1315.7 995.6 1314.7 995.6H1290.5C1289.6 995.6 1288.8 994.9 1288.8 993.9C1288.8 993 1289.5 992.2 1290.5 992.2H1314.7C1315.6 992.3 1316.4 993 1316.4 993.9Z" fill="black"/>
                    <path d="M1208.5 1002.2C1208.5 1003.1 1207.8 1003.9 1206.8 1003.9H1182.6C1181.7 1003.9 1180.9 1003.2 1180.9 1002.2C1180.9 1001.3 1181.6 1000.5 1182.6 1000.5H1206.8C1207.8 1000.5 1208.5 1001.3 1208.5 1002.2Z" fill="black"/>
                    <path d="M1252 1002.2C1252 1003.1 1251.3 1003.9 1250.3 1003.9H1226.1C1225.2 1003.9 1224.4 1003.2 1224.4 1002.2C1224.4 1001.3 1225.1 1000.5 1226.1 1000.5H1250.3C1251.2 1000.5 1252 1001.3 1252 1002.2Z" fill="black"/>
                    <path d="M1293.7 1002.2C1293.7 1003.1 1293 1003.9 1292 1003.9H1267.8C1266.9 1003.9 1266.1 1003.2 1266.1 1002.2C1266.1 1001.3 1266.8 1000.5 1267.8 1000.5H1292C1293 1000.5 1293.7 1001.3 1293.7 1002.2Z" fill="black"/>
                    <path d="M1185.9 1009C1185.9 1009.9 1185.2 1010.7 1184.2 1010.7H1160C1159.1 1010.7 1158.3 1010 1158.3 1009C1158.3 1008.1 1159 1007.3 1160 1007.3H1184.2C1185.2 1007.4 1185.9 1008.1 1185.9 1009Z" fill="black"/>
                    <path d="M1229.4 1009C1229.4 1009.9 1228.7 1010.7 1227.7 1010.7H1203.5C1202.6 1010.7 1201.8 1010 1201.8 1009C1201.8 1008.1 1202.5 1007.3 1203.5 1007.3H1227.7C1228.7 1007.4 1229.4 1008.1 1229.4 1009Z" fill="black"/>
                    <path d="M1272.1 1009C1272.1 1009.9 1271.4 1010.7 1270.4 1010.7H1246.2C1245.3 1010.7 1244.5 1010 1244.5 1009C1244.5 1008.1 1245.2 1007.3 1246.2 1007.3H1270.4C1271.3 1007.4 1272.1 1008.1 1272.1 1009Z" fill="black"/>
                    <path d="M1315.1 1009C1315.1 1009.9 1314.4 1010.7 1313.4 1010.7H1289.2C1288.3 1010.7 1287.5 1010 1287.5 1009C1287.5 1008.1 1288.2 1007.3 1289.2 1007.3H1313.4C1314.4 1007.4 1315.1 1008.1 1315.1 1009Z" fill="black"/>
                    <path d="M880 1030.6C880 1030.6 886.5 1017.3 910.4 1017.3C934.3 1017.3 1330 1017.3 1330 1017.3C1330 1017.3 1352 1017.7 1352 1038C1352 1058.3 1352 1137 1352 1137" fill="black"/>
                    <path d="M1230.7 1023.1H1329.2C1329.2 1023.1 1347 1021.4 1347 1037.2C1347 1053 1347 1137 1347 1137" fill="black"/>
                    <path d="M863 1158.5V1116.7L885.8 1033.5C885.8 1033.5 888.6 1023.1 908.2 1023.1C911.9 1023.1 916.1 1023.1 916.1 1023.1" fill="black"/>
                    <path d="M830.7 1158.5H1231.5L1201.9 1227C1201.9 1227 1199.3 1231 1190.9 1231C1182.5 1231 786.9 1231 786.9 1231C786.9 1231 774.8 1230.7 776.7 1227.9C778.5 1225.1 830.7 1158.5 830.7 1158.5Z" fill="black"/>
                    <path d="M1233.1 1194.1C1233.1 1206.2 1232.2 1216.1 1231.1 1216.1C1230 1216.1 1229.1 1206.2 1229.1 1194.1C1229.1 1182 1230 1172.1 1231.1 1172.1C1232.2 1172.1 1233.1 1182 1233.1 1194.1Z" fill="black"/>
                    <path d="M1231.5 1158.5L1231.4 1172.1L1203.9 1235.3C1203.9 1235.3 1199.9 1242.8 1188.4 1242.8C1176.9 1242.8 788.8 1242.8 788.8 1242.8C788.8 1242.8 776.5 1243.1 776.5 1239.1C776.5 1235.1 776.5 1229.2 776.5 1229.2" fill="black"/>
                    <path d="M766.8 1192.5C766.8 1204.6 765.9 1214.5 764.8 1214.5C763.7 1214.5 762.8 1204.6 762.8 1192.5C762.8 1180.4 763.7 1170.5 764.8 1170.5C765.9 1170.5 766.8 1180.3 766.8 1192.5Z" fill="black"/>
                    <path d="M766.8 1158.5L705.6 1226.4C705.6 1226.4 701.9 1231.1 692.2 1231.1C682.6 1231.1 1 1231.1 1 1231.1" fill="black"/>
                    <path d="M764.8 1170.5L705.3 1237.2C705.3 1237.2 700.1 1242.9 690.4 1242.9C680.7 1242.9 1 1242.9 1 1242.9" fill="black"/>
                    <path d="M464.5 1211.7H509.7C509.7 1211.7 514.6 1211.4 511.2 1214.3C509.7 1216.2 506.2 1219.3 506.2 1219.3C506.2 1219.3 504.8 1220.8 501.8 1220.8C498.8 1220.8 453.9 1220.8 453.9 1220.8C453.9 1220.8 451 1220.8 453 1219C455 1217.2 460.1 1212.4 460.1 1212.4C460.1 1212.4 460.8 1211.7 464.5 1211.7V1211.7Z" fill="black"/>
                    <path d="M524.2 1215.7H565.7C565.7 1215.7 569 1215.9 566.9 1218C566.5 1218.4 565.1 1219.7 565.1 1219.7C565.1 1219.7 563.8 1221.4 561 1221.4C558.2 1221.4 516.5 1221.4 516.5 1221.4C516.5 1221.4 513.8 1221.4 515.7 1219.4C517.6 1217.4 520.2 1216.5 520.2 1216.5C520.2 1216.5 520.8 1215.7 524.2 1215.7V1215.7Z" fill="black"/>
                    <path d="M588 1215.7H629.5C629.5 1215.7 632.8 1215.9 630.7 1218C630.3 1218.4 628.9 1219.7 628.9 1219.7C628.9 1219.7 627.6 1221.4 624.8 1221.4C622 1221.4 580.3 1221.4 580.3 1221.4C580.3 1221.4 577.6 1221.4 579.5 1219.4C581.4 1217.4 584 1216.5 584 1216.5C584 1216.5 584.6 1215.7 588 1215.7V1215.7Z" fill="black"/>
                    <path d="M650.5 1215.7H692C692 1215.7 695.3 1215.9 693.2 1218C692.8 1218.4 691.4 1219.7 691.4 1219.7C691.4 1219.7 690.1 1221.4 687.3 1221.4C684.5 1221.4 642.8 1221.4 642.8 1221.4C642.8 1221.4 640.1 1221.4 642 1219.4C643.9 1217.4 646.5 1216.5 646.5 1216.5C646.5 1216.5 647.1 1215.7 650.5 1215.7V1215.7Z" fill="black"/>
                    <path d="M593.753 1209.94H635.253C635.253 1209.94 638.553 1210.14 636.453 1212.24C636.053 1212.64 634.653 1213.94 634.653 1213.94C634.653 1213.94 633.353 1215.64 630.553 1215.64C627.753 1215.64 586.053 1215.64 586.053 1215.64C586.053 1215.64 583.353 1215.64 585.253 1213.64C587.153 1211.64 589.753 1210.74 589.753 1210.74C589.753 1210.74 590.353 1209.94 593.753 1209.94V1209.94Z" fill="black"/>
                    <path d="M390.1 1211.7H446.1C446.1 1211.7 452.2 1211.4 448 1214.3C446.1 1216.2 441.9 1219.3 441.9 1219.3C441.9 1219.3 440.2 1220.8 436.4 1220.8C432.6 1220.8 377 1220.8 377 1220.8C377 1220.8 373.4 1220.8 375.9 1219C378.4 1217.2 384.7 1212.4 384.7 1212.4C384.7 1212.4 385.5 1211.7 390.1 1211.7V1211.7Z" fill="black"/>
                    <path d="M77.5 1211.7H369.1C369.1 1211.7 375.2 1211.4 371 1214.5C369.1 1216.6 364.9 1219.8 364.9 1219.8C364.9 1219.8 363.2 1221.4 359.4 1221.4C355.6 1221.4 63.9 1221.4 63.9 1221.4C63.9 1221.4 60.3 1221.4 62.8 1219.5C65.3 1217.6 72.1 1212.4 72.1 1212.4C72.1 1212.4 73 1211.7 77.5 1211.7V1211.7Z" fill="black"/>
                    <path d="M524.6 1200.7H569.8C569.8 1200.7 574.7 1200.5 571.3 1202.8C569.8 1204.4 566.3 1206.8 566.3 1206.8C566.3 1206.8 564.9 1208 561.9 1208C558.9 1208 514 1208 514 1208C514 1208 511.1 1208 513.1 1206.5C515.1 1205 520.2 1201.1 520.2 1201.1C520.2 1201.1 520.9 1200.7 524.6 1200.7V1200.7Z" fill="black"/>
                    <path d="M336.5 1200.7H381.7C381.7 1200.7 386.6 1200.5 383.2 1202.8C381.7 1204.4 378.2 1206.8 378.2 1206.8C378.2 1206.8 376.8 1208 373.8 1208C370.8 1208 325.9 1208 325.9 1208C325.9 1208 323 1208 325 1206.5C327 1205 332.1 1201.1 332.1 1201.1C332.1 1201.1 332.9 1200.7 336.5 1200.7V1200.7Z" fill="black"/>
                    <path d="M461.7 1200.7H506.9C506.9 1200.7 511.8 1200.5 508.4 1202.8C506.9 1204.4 503.4 1206.8 503.4 1206.8C503.4 1206.8 502 1208 499 1208C496 1208 451.1 1208 451.1 1208C451.1 1208 448.2 1208 450.2 1206.5C452.2 1205 457.3 1201.1 457.3 1201.1C457.3 1201.1 458 1200.7 461.7 1200.7V1200.7Z" fill="black"/>
                    <path d="M399.6 1200.7H444.8C444.8 1200.7 449.7 1200.5 446.3 1202.8C444.8 1204.4 441.3 1206.8 441.3 1206.8C441.3 1206.8 439.9 1208 436.9 1208C433.9 1208 389 1208 389 1208C389 1208 386.1 1208 388.1 1206.5C390.1 1205 395.2 1201.1 395.2 1201.1C395.2 1201.1 395.9 1200.7 399.6 1200.7V1200.7Z" fill="black"/>
                    <path d="M276.4 1200.7H321.6C321.6 1200.7 326.5 1200.5 323.1 1202.8C321.6 1204.4 318.1 1206.8 318.1 1206.8C318.1 1206.8 316.7 1208 313.7 1208C310.7 1208 265.8 1208 265.8 1208C265.8 1208 262.9 1208 264.9 1206.5C266.9 1205 272 1201.1 272 1201.1C272 1201.1 272.8 1200.7 276.4 1200.7V1200.7Z" fill="black"/>
                    <path d="M214.1 1200.7H259.3C259.3 1200.7 264.2 1200.5 260.8 1202.8C259.3 1204.4 255.8 1206.8 255.8 1206.8C255.8 1206.8 254.4 1208 251.4 1208C248.4 1208 203.5 1208 203.5 1208C203.5 1208 200.6 1208 202.6 1206.5C204.6 1205 209.7 1201.1 209.7 1201.1C209.7 1201.1 210.4 1200.7 214.1 1200.7V1200.7Z" fill="black"/>
                    <path d="M153.6 1200.7H198.8C198.8 1200.7 203.7 1200.5 200.3 1202.8C198.8 1204.4 195.3 1206.8 195.3 1206.8C195.3 1206.8 193.9 1208 190.9 1208C187.9 1208 143 1208 143 1208C143 1208 140.1 1208 142.1 1206.5C144.1 1205 149.2 1201.1 149.2 1201.1C149.2 1201.1 150 1200.7 153.6 1200.7V1200.7Z" fill="black"/>
                    <path d="M91.9 1200.7H137.1C137.1 1200.7 142 1200.5 138.6 1202.8C137.1 1204.4 133.6 1206.8 133.6 1206.8C133.6 1206.8 132.2 1208 129.2 1208C126.2 1208 81.3 1208 81.3 1208C81.3 1208 78.4 1208 80.4 1206.5C82.4 1205 87.5 1201.1 87.5 1201.1C87.5 1201.1 88.3 1200.7 91.9 1200.7V1200.7Z" fill="black"/>
                    <path d="M30.6 1200.7H75.8C75.8 1200.7 80.7 1200.5 77.3 1202.8C75.8 1204.4 72.3 1206.8 72.3 1206.8C72.3 1206.8 70.9 1208 67.9 1208C64.9 1208 20 1208 20 1208C20 1208 17.1 1208 19.1 1206.5C21.1 1205 26.2 1201.1 26.2 1201.1C26.2 1201.1 27 1200.7 30.6 1200.7V1200.7Z" fill="black"/>
                    <path d="M1 1212H58.1C58.1 1212 61.9 1211.2 58.5 1214.2C56.3 1216.1 50.5 1219.9 50.5 1219.9C50.5 1219.9 49.1 1221.5 46.1 1221.5C43.1 1221.5 1 1221.5 1 1221.5" fill="black"/>
                    <path d="M1 1200.7H14.1C14.1 1200.7 19 1200.5 15.6 1202.8C14.1 1204.4 10.6 1206.8 10.6 1206.8C10.6 1206.8 9.2 1208 6.2 1208C3.2 1208 1 1208 1 1208" fill="black"/>
                    <path d="M587.2 1200.7H704.8C704.8 1200.7 709.7 1200.5 706.3 1202.8C704.8 1204.4 702.2 1206.8 702.2 1206.8C702.2 1206.8 700.8 1208 697.8 1208C694.8 1208 576.6 1208 576.6 1208C576.6 1208 573.7 1208 575.7 1206.5C577.7 1205 582.8 1201.1 582.8 1201.1C582.8 1201.1 583.5 1200.7 587.2 1200.7V1200.7Z" fill="black"/>
                    <path d="M564.9 1189.4H610.1C610.1 1189.4 615 1189.2 611.6 1191.5C610.1 1193.1 606.6 1195.5 606.6 1195.5C606.6 1195.5 605.2 1196.7 602.2 1196.7C599.2 1196.7 554.3 1196.7 554.3 1196.7C554.3 1196.7 551.4 1196.7 553.4 1195.2C555.4 1193.7 560.5 1189.8 560.5 1189.8C560.5 1189.8 561.2 1189.4 564.9 1189.4V1189.4Z" fill="black"/>
                    <path d="M381.8 1189.4H427C427 1189.4 431.9 1189.2 428.5 1191.5C427 1193.1 423.5 1195.5 423.5 1195.5C423.5 1195.5 422.1 1196.7 419.1 1196.7C416.1 1196.7 371.2 1196.7 371.2 1196.7C371.2 1196.7 368.3 1196.7 370.3 1195.2C372.3 1193.7 377.4 1189.8 377.4 1189.8C377.4 1189.8 378.1 1189.4 381.8 1189.4V1189.4Z" fill="black"/>
                    <path d="M504.5 1189.4H549.7C549.7 1189.4 554.6 1189.2 551.2 1191.5C549.7 1193.1 546.2 1195.5 546.2 1195.5C546.2 1195.5 544.8 1196.7 541.8 1196.7C538.8 1196.7 493.9 1196.7 493.9 1196.7C493.9 1196.7 491 1196.7 493 1195.2C495 1193.7 500.1 1189.8 500.1 1189.8C500.1 1189.8 500.8 1189.4 504.5 1189.4V1189.4Z" fill="black"/>
                    <path d="M442.4 1189.4H487.6C487.6 1189.4 492.5 1189.2 489.1 1191.5C487.6 1193.1 484.1 1195.5 484.1 1195.5C484.1 1195.5 482.7 1196.7 479.7 1196.7C476.7 1196.7 431.8 1196.7 431.8 1196.7C431.8 1196.7 428.9 1196.7 430.9 1195.2C432.9 1193.7 438 1189.8 438 1189.8C438 1189.8 438.7 1189.4 442.4 1189.4V1189.4Z" fill="black"/>
                    <path d="M321.7 1189.4H366.9C366.9 1189.4 371.8 1189.2 368.4 1191.5C366.9 1193.1 363.4 1195.5 363.4 1195.5C363.4 1195.5 362 1196.7 359 1196.7C356 1196.7 311.1 1196.7 311.1 1196.7C311.1 1196.7 308.2 1196.7 310.2 1195.2C312.2 1193.7 317.3 1189.8 317.3 1189.8C317.3 1189.8 318 1189.4 321.7 1189.4V1189.4Z" fill="black"/>
                    <path d="M261.8 1189.4H307C307 1189.4 311.9 1189.2 308.5 1191.5C307 1193.1 303.5 1195.5 303.5 1195.5C303.5 1195.5 302.1 1196.7 299.1 1196.7C296.1 1196.7 251.2 1196.7 251.2 1196.7C251.2 1196.7 248.3 1196.7 250.3 1195.2C252.3 1193.7 257.4 1189.8 257.4 1189.8C257.4 1189.8 258.1 1189.4 261.8 1189.4V1189.4Z" fill="black"/>
                    <path d="M198.9 1189.4H244.1C244.1 1189.4 249 1189.2 245.6 1191.5C244.1 1193.1 240.6 1195.5 240.6 1195.5C240.6 1195.5 239.2 1196.7 236.2 1196.7C233.2 1196.7 188.3 1196.7 188.3 1196.7C188.3 1196.7 185.4 1196.7 187.4 1195.2C189.4 1193.7 194.5 1189.8 194.5 1189.8C194.5 1189.8 195.2 1189.4 198.9 1189.4V1189.4Z" fill="black"/>
                    <path d="M137.2 1189.4H182.4C182.4 1189.4 187.3 1189.2 183.9 1191.5C182.4 1193.1 178.9 1195.5 178.9 1195.5C178.9 1195.5 177.5 1196.7 174.5 1196.7C171.5 1196.7 126.6 1196.7 126.6 1196.7C126.6 1196.7 123.7 1196.7 125.7 1195.2C127.7 1193.7 132.8 1189.8 132.8 1189.8C132.8 1189.8 133.5 1189.4 137.2 1189.4V1189.4Z" fill="black"/>
                    <path d="M78.4 1189.4H123.6C123.6 1189.4 128.5 1189.2 125.1 1191.5C123.6 1193.1 120.1 1195.5 120.1 1195.5C120.1 1195.5 118.7 1196.7 115.7 1196.7C112.7 1196.7 67.8 1196.7 67.8 1196.7C67.8 1196.7 64.9 1196.7 66.9 1195.2C68.9 1193.7 74 1189.8 74 1189.8C74 1189.8 74.7 1189.4 78.4 1189.4V1189.4Z" fill="black"/>
                    <path d="M18.3 1189.4H63.5C63.5 1189.4 68.4 1189.2 65 1191.5C63.5 1193.1 60 1195.5 60 1195.5C60 1195.5 58.6 1196.7 55.6 1196.7C52.6 1196.7 7.70004 1196.7 7.70004 1196.7C7.70004 1196.7 4.80004 1196.7 6.80004 1195.2C8.80004 1193.7 13.9 1189.8 13.9 1189.8C13.9 1189.8 14.6 1189.4 18.3 1189.4V1189.4Z" fill="black"/>
                    <path d="M627.1 1189.4H716C716 1189.4 720.9 1189.2 717.5 1191.5C716 1193.1 713.3 1195.5 713.3 1195.5C713.3 1195.5 711.9 1196.7 708.9 1196.7C705.9 1196.7 616.5 1196.7 616.5 1196.7C616.5 1196.7 613.6 1196.7 615.6 1195.2C617.6 1193.7 622.7 1189.8 622.7 1189.8C622.7 1189.8 623.4 1189.4 627.1 1189.4V1189.4Z" fill="black"/>
                    <path d="M685.2 1178.9H725.3C725.3 1178.9 730.2 1178.7 726.8 1181C725.3 1182.6 722.6 1185 722.6 1185C722.6 1185 721.2 1186.2 718.2 1186.2C715.2 1186.2 674.6 1186.2 674.6 1186.2C674.6 1186.2 671.7 1186.2 673.7 1184.7C675.7 1183.2 680.8 1179.3 680.8 1179.3C680.8 1179.3 681.5 1178.9 685.2 1178.9V1178.9Z" fill="black"/>
                    <path d="M664.6 1168.7H734.4C734.4 1168.7 739.3 1168.5 735.9 1170.8C734.4 1172.4 731.7 1174.8 731.7 1174.8C731.7 1174.8 730.3 1176 727.3 1176C724.3 1176 654 1176 654 1176C654 1176 651.1 1176 653.1 1174.5C655.1 1173 660.2 1169.1 660.2 1169.1C660.2 1169.1 660.9 1168.7 664.6 1168.7V1168.7Z" fill="black"/>
                    <path d="M701.8 1159.9H742.4C742.4 1159.9 746.1 1159.9 743.9 1162C742.4 1163.6 740.8 1165 740.8 1165C740.8 1165 739.4 1166.2 736.4 1166.2C733.4 1166.2 692.3 1166.2 692.3 1166.2C692.3 1166.2 689.4 1166.2 691.4 1164.7C693.4 1163.2 697.3 1160.3 697.3 1160.3C697.3 1160.3 698.1 1159.9 701.8 1159.9V1159.9Z" fill="black"/>
                    <path d="M640.4 1159.9H681C681 1159.9 684.7 1159.9 682.5 1162C681 1163.6 679.4 1165 679.4 1165C679.4 1165 678 1166.2 675 1166.2C672 1166.2 630.9 1166.2 630.9 1166.2C630.9 1166.2 628 1166.2 630 1164.7C632 1163.2 635.9 1160.3 635.9 1160.3C635.9 1160.3 636.8 1159.9 640.4 1159.9V1159.9Z" fill="black"/>
                    <path d="M578.5 1159.9H619.1C619.1 1159.9 622.8 1159.9 620.6 1162C619.1 1163.6 617.5 1165 617.5 1165C617.5 1165 616.1 1166.2 613.1 1166.2C610.1 1166.2 569 1166.2 569 1166.2C569 1166.2 566.1 1166.2 568.1 1164.7C570.1 1163.2 574 1160.3 574 1160.3C574 1160.3 574.8 1159.9 578.5 1159.9V1159.9Z" fill="black"/>
                    <path d="M516.7 1159.9H557.3C557.3 1159.9 561 1159.9 558.8 1162C557.3 1163.6 555.7 1165 555.7 1165C555.7 1165 554.3 1166.2 551.3 1166.2C548.3 1166.2 507.2 1166.2 507.2 1166.2C507.2 1166.2 504.3 1166.2 506.3 1164.7C508.3 1163.2 512.2 1160.3 512.2 1160.3C512.2 1160.3 513 1159.9 516.7 1159.9V1159.9Z" fill="black"/>
                    <path d="M456.3 1159.9H496.9C496.9 1159.9 500.6 1159.9 498.4 1162C496.9 1163.6 495.3 1165 495.3 1165C495.3 1165 493.9 1166.2 490.9 1166.2C487.9 1166.2 446.8 1166.2 446.8 1166.2C446.8 1166.2 443.9 1166.2 445.9 1164.7C447.9 1163.2 451.8 1160.3 451.8 1160.3C451.8 1160.3 452.6 1159.9 456.3 1159.9V1159.9Z" fill="black"/>
                    <path d="M395 1159.9H435.6C435.6 1159.9 439.3 1159.9 437.1 1162C435.6 1163.6 434 1165 434 1165C434 1165 432.6 1166.2 429.6 1166.2C426.6 1166.2 385.5 1166.2 385.5 1166.2C385.5 1166.2 382.6 1166.2 384.6 1164.7C386.6 1163.2 390.5 1160.3 390.5 1160.3C390.5 1160.3 391.3 1159.9 395 1159.9V1159.9Z" fill="black"/>
                    <path d="M333.6 1159.9H374.2C374.2 1159.9 377.9 1159.9 375.7 1162C374.2 1163.6 372.6 1165 372.6 1165C372.6 1165 371.2 1166.2 368.2 1166.2C365.2 1166.2 324.1 1166.2 324.1 1166.2C324.1 1166.2 321.2 1166.2 323.2 1164.7C325.2 1163.2 329.1 1160.3 329.1 1160.3C329.1 1160.3 330 1159.9 333.6 1159.9V1159.9Z" fill="black"/>
                    <path d="M271.9 1159.9H312.5C312.5 1159.9 316.2 1159.9 314 1162C312.5 1163.6 310.9 1165 310.9 1165C310.9 1165 309.5 1166.2 306.5 1166.2C303.5 1166.2 262.4 1166.2 262.4 1166.2C262.4 1166.2 259.5 1166.2 261.5 1164.7C263.5 1163.2 267.4 1160.3 267.4 1160.3C267.4 1160.3 268.2 1159.9 271.9 1159.9V1159.9Z" fill="black"/>
                    <path d="M210.4 1159.9H251C251 1159.9 254.7 1159.9 252.5 1162C251 1163.6 249.4 1165 249.4 1165C249.4 1165 248 1166.2 245 1166.2C242 1166.2 200.9 1166.2 200.9 1166.2C200.9 1166.2 198 1166.2 200 1164.7C202 1163.2 205.9 1160.3 205.9 1160.3C205.9 1160.3 206.7 1159.9 210.4 1159.9V1159.9Z" fill="black"/>
                    <path d="M148.9 1159.9H189.5C189.5 1159.9 193.2 1159.9 191 1162C189.5 1163.6 187.9 1165 187.9 1165C187.9 1165 186.5 1166.2 183.5 1166.2C180.5 1166.2 139.4 1166.2 139.4 1166.2C139.4 1166.2 136.5 1166.2 138.5 1164.7C140.5 1163.2 144.4 1160.3 144.4 1160.3C144.4 1160.3 145.2 1159.9 148.9 1159.9V1159.9Z" fill="black"/>
                    <path d="M87.2 1159.9H127.8C127.8 1159.9 131.5 1159.9 129.3 1162C127.8 1163.6 126.2 1165 126.2 1165C126.2 1165 124.8 1166.2 121.8 1166.2C118.8 1166.2 77.7 1166.2 77.7 1166.2C77.7 1166.2 74.8 1166.2 76.8 1164.7C78.8 1163.2 82.7 1160.3 82.7 1160.3C82.7 1160.3 83.6 1159.9 87.2 1159.9V1159.9Z" fill="black"/>
                    <path d="M26.5 1159.1H67.1C67.1 1159.1 70.8 1159.1 68.6 1161.2C67.1 1162.8 65.5 1164.2 65.5 1164.2C65.5 1164.2 64.1 1165.4 61.1 1165.4C58.1 1165.4 17 1165.4 17 1165.4C17 1165.4 14.1 1165.4 16.1 1163.9C18.1 1162.4 22 1159.5 22 1159.5C22 1159.5 22.9 1159.1 26.5 1159.1V1159.1Z" fill="black"/>
                    <path d="M623.7 1178.9H668.9C668.9 1178.9 673.8 1178.7 670.4 1181C668.9 1182.6 665.4 1185 665.4 1185C665.4 1185 664 1186.2 661 1186.2C658 1186.2 613.1 1186.2 613.1 1186.2C613.1 1186.2 610.2 1186.2 612.2 1184.7C614.2 1183.2 619.3 1179.3 619.3 1179.3C619.3 1179.3 620 1178.9 623.7 1178.9V1178.9Z" fill="black"/>
                    <path d="M440.6 1178.9H485.8C485.8 1178.9 490.7 1178.7 487.3 1181C485.8 1182.6 482.3 1185 482.3 1185C482.3 1185 480.9 1186.2 477.9 1186.2C474.9 1186.2 430 1186.2 430 1186.2C430 1186.2 427.1 1186.2 429.1 1184.7C431.1 1183.2 436.2 1179.3 436.2 1179.3C436.2 1179.3 437 1178.9 440.6 1178.9V1178.9Z" fill="black"/>
                    <path d="M563.3 1178.9H608.5C608.5 1178.9 613.4 1178.7 610 1181C608.5 1182.6 605 1185 605 1185C605 1185 603.6 1186.2 600.6 1186.2C597.6 1186.2 552.7 1186.2 552.7 1186.2C552.7 1186.2 549.8 1186.2 551.8 1184.7C553.8 1183.2 558.9 1179.3 558.9 1179.3C558.9 1179.3 559.6 1178.9 563.3 1178.9V1178.9Z" fill="black"/>
                    <path d="M501.2 1178.9H546.4C546.4 1178.9 551.3 1178.7 547.9 1181C546.4 1182.6 542.9 1185 542.9 1185C542.9 1185 541.5 1186.2 538.5 1186.2C535.5 1186.2 490.6 1186.2 490.6 1186.2C490.6 1186.2 487.7 1186.2 489.7 1184.7C491.7 1183.2 496.8 1179.3 496.8 1179.3C496.8 1179.3 497.5 1178.9 501.2 1178.9V1178.9Z" fill="black"/>
                    <path d="M380.5 1178.9H425.7C425.7 1178.9 430.6 1178.7 427.2 1181C425.7 1182.6 422.2 1185 422.2 1185C422.2 1185 420.8 1186.2 417.8 1186.2C414.8 1186.2 369.9 1186.2 369.9 1186.2C369.9 1186.2 367 1186.2 369 1184.7C371 1183.2 376.1 1179.3 376.1 1179.3C376.1 1179.3 376.8 1178.9 380.5 1178.9V1178.9Z" fill="black"/>
                    <path d="M320.6 1178.9H365.8C365.8 1178.9 370.7 1178.7 367.3 1181C365.8 1182.6 362.3 1185 362.3 1185C362.3 1185 360.9 1186.2 357.9 1186.2C354.9 1186.2 310 1186.2 310 1186.2C310 1186.2 307.1 1186.2 309.1 1184.7C311.1 1183.2 316.2 1179.3 316.2 1179.3C316.2 1179.3 317 1178.9 320.6 1178.9V1178.9Z" fill="black"/>
                    <path d="M257.7 1178.9H302.9C302.9 1178.9 307.8 1178.7 304.4 1181C302.9 1182.6 299.4 1185 299.4 1185C299.4 1185 298 1186.2 295 1186.2C292 1186.2 247.1 1186.2 247.1 1186.2C247.1 1186.2 244.2 1186.2 246.2 1184.7C248.2 1183.2 253.3 1179.3 253.3 1179.3C253.3 1179.3 254.1 1178.9 257.7 1178.9V1178.9Z" fill="black"/>
                    <path d="M196 1178.9H241.2C241.2 1178.9 246.1 1178.7 242.7 1181C241.2 1182.6 237.7 1185 237.7 1185C237.7 1185 236.3 1186.2 233.3 1186.2C230.3 1186.2 185.4 1186.2 185.4 1186.2C185.4 1186.2 182.5 1186.2 184.5 1184.7C186.5 1183.2 191.6 1179.3 191.6 1179.3C191.6 1179.3 192.3 1178.9 196 1178.9V1178.9Z" fill="black"/>
                    <path d="M137.2 1178.9H182.4C182.4 1178.9 187.3 1178.7 183.9 1181C182.4 1182.6 178.9 1185 178.9 1185C178.9 1185 177.5 1186.2 174.5 1186.2C171.5 1186.2 126.6 1186.2 126.6 1186.2C126.6 1186.2 123.7 1186.2 125.7 1184.7C127.7 1183.2 132.8 1179.3 132.8 1179.3C132.8 1179.3 133.5 1178.9 137.2 1178.9V1178.9Z" fill="black"/>
                    <path d="M77.1 1178.9H122.3C122.3 1178.9 127.2 1178.7 123.8 1181C122.3 1182.6 118.8 1185 118.8 1185C118.8 1185 117.4 1186.2 114.4 1186.2C111.4 1186.2 66.5 1186.2 66.5 1186.2C66.5 1186.2 63.6 1186.2 65.6 1184.7C67.6 1183.2 72.7 1179.3 72.7 1179.3C72.7 1179.3 73.4 1178.9 77.1 1178.9V1178.9Z" fill="black"/>
                    <path d="M17 1178.9H62.2C62.2 1178.9 67.1 1178.7 63.7 1181C62.2 1182.6 58.7 1185 58.7 1185C58.7 1185 57.3 1186.2 54.3 1186.2C51.3 1186.2 6.39999 1186.2 6.39999 1186.2C6.39999 1186.2 3.49999 1186.2 5.49999 1184.7C7.49999 1183.2 12.6 1179.3 12.6 1179.3C12.6 1179.3 13.3 1178.9 17 1178.9V1178.9Z" fill="black"/>
                    <path d="M482.5 1168.7H527.7C527.7 1168.7 532.6 1168.5 529.2 1170.8C527.7 1172.4 524.2 1174.8 524.2 1174.8C524.2 1174.8 522.8 1176 519.8 1176C516.8 1176 471.9 1176 471.9 1176C471.9 1176 469 1176 471 1174.5C473 1173 478.1 1169.1 478.1 1169.1C478.1 1169.1 478.8 1168.7 482.5 1168.7V1168.7Z" fill="black"/>
                    <path d="M603.7 1168.7H648.9C648.9 1168.7 653.8 1168.5 650.4 1170.8C648.9 1172.4 645.4 1174.8 645.4 1174.8C645.4 1174.8 644 1176 641 1176C638 1176 593.1 1176 593.1 1176C593.1 1176 590.2 1176 592.2 1174.5C594.2 1173 599.3 1169.1 599.3 1169.1C599.3 1169.1 600.1 1168.7 603.7 1168.7V1168.7Z" fill="black"/>
                    <path d="M541.6 1168.7H586.8C586.8 1168.7 591.7 1168.5 588.3 1170.8C586.8 1172.4 583.3 1174.8 583.3 1174.8C583.3 1174.8 581.9 1176 578.9 1176C575.9 1176 531 1176 531 1176C531 1176 528.1 1176 530.1 1174.5C532.1 1173 537.2 1169.1 537.2 1169.1C537.2 1169.1 538 1168.7 541.6 1168.7V1168.7Z" fill="black"/>
                    <path d="M423.4 1168.7H468.6C468.6 1168.7 473.5 1168.5 470.1 1170.8C468.6 1172.4 465.1 1174.8 465.1 1174.8C465.1 1174.8 463.7 1176 460.7 1176C457.7 1176 412.8 1176 412.8 1176C412.8 1176 409.9 1176 411.9 1174.5C413.9 1173 419 1169.1 419 1169.1C419 1169.1 419.8 1168.7 423.4 1168.7V1168.7Z" fill="black"/>
                    <path d="M363.5 1168.7H408.7C408.7 1168.7 413.6 1168.5 410.2 1170.8C408.7 1172.4 405.2 1174.8 405.2 1174.8C405.2 1174.8 403.8 1176 400.8 1176C397.8 1176 352.9 1176 352.9 1176C352.9 1176 350 1176 352 1174.5C354 1173 359.1 1169.1 359.1 1169.1C359.1 1169.1 359.9 1168.7 363.5 1168.7V1168.7Z" fill="black"/>
                    <path d="M303.1 1168.7H348.3C348.3 1168.7 353.2 1168.5 349.8 1170.8C348.3 1172.4 344.8 1174.8 344.8 1174.8C344.8 1174.8 343.4 1176 340.4 1176C337.4 1176 292.5 1176 292.5 1176C292.5 1176 289.6 1176 291.6 1174.5C293.6 1173 298.7 1169.1 298.7 1169.1C298.7 1169.1 299.5 1168.7 303.1 1168.7V1168.7Z" fill="black"/>
                    <path d="M243.9 1168.7H289.1C289.1 1168.7 294 1168.5 290.6 1170.8C289.1 1172.4 285.6 1174.8 285.6 1174.8C285.6 1174.8 284.2 1176 281.2 1176C278.2 1176 233.3 1176 233.3 1176C233.3 1176 230.4 1176 232.4 1174.5C234.4 1173 239.5 1169.1 239.5 1169.1C239.5 1169.1 240.2 1168.7 243.9 1168.7V1168.7Z" fill="black"/>
                    <path d="M185.1 1168.7H230.3C230.3 1168.7 235.2 1168.5 231.8 1170.8C230.3 1172.4 226.8 1174.8 226.8 1174.8C226.8 1174.8 225.4 1176 222.4 1176C219.4 1176 174.5 1176 174.5 1176C174.5 1176 171.6 1176 173.6 1174.5C175.6 1173 180.7 1169.1 180.7 1169.1C180.7 1169.1 181.4 1168.7 185.1 1168.7V1168.7Z" fill="black"/>
                    <path d="M125 1168.7H170.2C170.2 1168.7 175.1 1168.5 171.7 1170.8C170.2 1172.4 166.7 1174.8 166.7 1174.8C166.7 1174.8 165.3 1176 162.3 1176C159.3 1176 114.4 1176 114.4 1176C114.4 1176 111.5 1176 113.5 1174.5C115.5 1173 120.6 1169.1 120.6 1169.1C120.6 1169.1 121.3 1168.7 125 1168.7V1168.7Z" fill="black"/>
                    <path d="M64.9 1168.7H110C110 1168.7 114.9 1168.5 111.5 1170.8C110 1172.4 106.5 1174.8 106.5 1174.8C106.5 1174.8 105.1 1176 102.1 1176C99.1 1176 54.2 1176 54.2 1176C54.2 1176 51.3 1176 53.3 1174.5C55.3 1173 60.4 1169.1 60.4 1169.1C60.4 1169.1 61.2 1168.7 64.9 1168.7V1168.7Z" fill="black"/>
                    <path d="M1 1170.5C1 1170.5 3.4 1168.7 7.1 1168.7H52.3C52.3 1168.7 57.2 1168.5 53.8 1170.8C52.3 1172.4 48.8 1174.8 48.8 1174.8C48.8 1174.8 47.4 1176 44.4 1176C41.4 1176 1 1176 1 1176" fill="black"/>
                    <path d="M1.00002 1159.4H7.80002C7.80002 1159.4 12.7 1159.2 9.30002 1161.5C7.80002 1163.1 4.30002 1165.5 4.30002 1165.5C4.30002 1165.5 4.00002 1165.7 0.900024 1165.7" fill="black"/>
                    <path d="M1723.4 1179.6L1889.8 1180.4C1889.8 1180.4 1901.8 1179.2 1906.4 1184.5C1911 1189.9 1925.4 1210.2 1925.4 1210.2C1925.4 1210.2 1926.6 1213.9 1919.6 1213.9C1912.6 1213.9 1740.7 1213.9 1740.7 1213.9C1740.7 1213.9 1726.2 1214 1724.6 1207.7C1722.5 1199.8 1718.8 1183.7 1718.8 1183.7C1718.8 1183.7 1718.4 1179.6 1723.4 1179.6Z" fill="black"/>
                    <path d="M1925.4 1211.1V1231.4C1925.4 1231.4 1925.4 1233.7 1918.8 1233.7C1912.2 1233.7 1841 1233.7 1841 1233.7" fill="black"/>
                    <path d="M1816.4 1233.6H1732.1C1732.1 1233.6 1724.9 1233.8 1723.2 1229.3C1721.5 1224.7 1718.8 1201.1 1718.8 1201.1V1183.7" fill="black"/>
                    <path d="M1826.6 1236.9C1826.6 1236.9 1814.2 1237.8 1814.2 1227.3C1814.2 1216.8 1820.4 1215.8 1827.9 1215.8C1835.4 1215.8 1843.1 1217.7 1843.1 1227C1843.1 1236.3 1836.9 1236 1836.9 1236" fill="black"/>
                    <path d="M1849.2 1388C1849.2 1388 1841.8 1280.1 1831.2 1250.3C1827.8 1238.8 1824.1 1229.3 1824.1 1229.3C1824.1 1229.3 1823 1223.6 1827.8 1222.4C1829.3 1222 1833.1 1221.1 1834.3 1226.4C1835.5 1229.4 1850.8 1272.3 1853.3 1308.1C1855.8 1343.9 1860.1 1388 1860.1 1388" fill="black"/>
                    <path d="M1754 1223.5C1754 1219.97 1756.87 1217.1 1760.4 1217.1C1763.93 1217.1 1766.8 1219.97 1766.8 1223.5C1766.8 1227.03 1763.93 1229.9 1760.4 1229.9C1756.87 1229.9 1754 1227.03 1754 1223.5Z" fill="black"/>
                    <path d="M1374.1 1136.3L1377.9 260H1930.6V1139.4" fill="black"/>
                    <path d="M1388.5 1136.4V273H1918.2V1139.4" fill="black"/>
                    <path d="M1582.3 808.8C1582.3 769.9 1613.4 738.4 1651.9 738.4C1690.3 738.4 1721.5 769.9 1721.5 808.8C1721.5 847.7 1690.4 879.2 1651.9 879.2C1613.4 879.2 1582.3 847.7 1582.3 808.8Z" fill="black"/>
                    <path d="M1496.3 808.8C1496.3 723.8 1565.9 654.9 1651.8 654.9C1737.7 654.9 1807.3 723.8 1807.3 808.8C1807.3 893.8 1737.7 962.7 1651.8 962.7C1566 962.7 1496.3 893.8 1496.3 808.8Z" fill="black"/>
                    <path d="M1482.1 808.8C1482.1 715.6 1558.1 640.1 1651.8 640.1C1745.6 640.1 1821.6 715.6 1821.6 808.8C1821.6 902 1745.6 977.5 1651.8 977.5C1558.1 977.6 1482.1 902 1482.1 808.8Z" fill="black"/>
                    <path d="M1457.2 807.6C1457.2 700.7 1544.2 614 1651.6 614C1759 614 1846 700.7 1846 807.6C1846 914.5 1759 1001.2 1651.6 1001.2C1544.3 1001.2 1457.2 914.5 1457.2 807.6Z" fill="black"/>
                    <path d="M1442.3 806.6C1442.3 690.9 1536.4 597.1 1652.4 597.1C1768.5 597.1 1862.5 690.9 1862.5 806.6C1862.5 922.3 1768.4 1016.1 1652.4 1016.1C1536.4 1016.1 1442.3 922.3 1442.3 806.6Z" fill="black"/>
                    <path d="M1416.9 806.7C1416.9 676.5 1522.4 570.9 1652.6 570.9C1782.8 570.9 1888.3 676.5 1888.3 806.7C1888.3 937 1782.8 1042.5 1652.6 1042.5C1522.4 1042.6 1416.9 937 1416.9 806.7Z" fill="black"/>
                    <path d="M1766.5 622.7C1766.5 616.459 1771.6 611.4 1777.9 611.4C1784.2 611.4 1789.3 616.459 1789.3 622.7C1789.3 628.941 1784.2 634 1777.9 634C1771.6 634 1766.5 628.941 1766.5 622.7Z" fill="black"/>
                    <path d="M1824.6 680.7C1824.6 674.5 1829.7 669.4 1836 669.4C1842.3 669.4 1847.4 674.4 1847.4 680.7C1847.4 686.9 1842.3 692 1836 692C1829.7 692 1824.6 687 1824.6 680.7Z" fill="black"/>
                    <path d="M1824.6 933.6C1824.6 927.4 1829.7 922.3 1836 922.3C1842.3 922.3 1847.4 927.3 1847.4 933.6C1847.4 939.8 1842.3 944.9 1836 944.9C1829.7 944.9 1824.6 939.9 1824.6 933.6Z" fill="black"/>
                    <path d="M1767.3 992.1C1767.3 985.9 1772.4 980.8 1778.7 980.8C1785 980.8 1790.1 985.8 1790.1 992.1C1790.1 998.3 1785 1003.4 1778.7 1003.4C1772.4 1003.4 1767.3 998.3 1767.3 992.1Z" fill="black"/>
                    <path d="M1513.9 992.1C1513.9 985.9 1519 980.8 1525.3 980.8C1531.6 980.8 1536.7 985.8 1536.7 992.1C1536.7 998.3 1531.6 1003.4 1525.3 1003.4C1519 1003.4 1513.9 998.3 1513.9 992.1Z" fill="black"/>
                    <path d="M1459.3 933.6C1459.3 927.4 1464.4 922.3 1470.7 922.3C1477 922.3 1482.1 927.3 1482.1 933.6C1482.1 939.8 1477 944.9 1470.7 944.9C1464.4 944.9 1459.3 939.9 1459.3 933.6Z" fill="black"/>
                    <path d="M1457.2 680.7C1457.2 674.5 1462.3 669.4 1468.6 669.4C1474.9 669.4 1480 674.4 1480 680.7C1480 686.9 1474.9 692 1468.6 692C1462.3 692 1457.2 687 1457.2 680.7Z" fill="black"/>
                    <path d="M1514.8 622.7C1514.8 616.459 1519.9 611.4 1526.2 611.4C1532.5 611.4 1537.6 616.459 1537.6 622.7C1537.6 628.941 1532.5 634 1526.2 634C1519.9 634 1514.8 628.941 1514.8 622.7Z" fill="black"/>
                    <path d="M1526.2 559.6C1526.2 553.359 1531.3 548.3 1537.6 548.3C1543.9 548.3 1549 553.359 1549 559.6C1549 565.841 1543.9 570.9 1537.6 570.9C1531.3 570.9 1526.2 565.841 1526.2 559.6Z" fill="black"/>
                    <path d="M1755.1 559.6C1755.1 553.359 1760.2 548.3 1766.5 548.3C1772.8 548.3 1777.9 553.359 1777.9 559.6C1777.9 565.841 1772.8 570.9 1766.5 570.9C1760.2 570.9 1755.1 565.841 1755.1 559.6Z" fill="black"/>
                    <path d="M1755.1 388.7C1755.1 382.459 1760.2 377.4 1766.5 377.4C1772.8 377.4 1777.9 382.459 1777.9 388.7C1777.9 394.941 1772.8 400 1766.5 400C1760.2 400 1755.1 394.941 1755.1 388.7Z" fill="black"/>
                    <path d="M1526.2 388.7C1526.2 382.459 1531.3 377.4 1537.6 377.4C1543.9 377.4 1549 382.459 1549 388.7C1549 394.941 1543.9 400 1537.6 400C1531.3 400 1526.2 394.941 1526.2 388.7Z" fill="black"/>
                    <path d="M1548.8 454.8C1548.8 398.4 1595 352.7 1652 352.7C1709 352.7 1755.2 398.4 1755.2 454.8C1755.2 511.2 1709 557 1652 557C1595 557 1548.8 511.2 1548.8 454.8Z" fill="black"/>
                    <path d="M1631.5 454.9C1631.5 443.4 1640.9 434.1 1652.5 434.1C1664.1 434.1 1673.5 443.4 1673.5 454.9C1673.5 466.4 1664.1 475.7 1652.5 475.7C1640.9 475.7 1631.5 466.4 1631.5 454.9Z" fill="black"/>
                    <path d="M1621.8 454.6C1621.8 438.1 1635.5 424.6 1652.3 424.6C1669.2 424.6 1682.8 438 1682.8 454.6C1682.8 471.2 1669.1 484.6 1652.3 484.6C1635.5 484.5 1621.8 471.1 1621.8 454.6V454.6Z" fill="black"/>
                    <path d="M1614.7 454.9C1614.7 434.1 1631.7 417.2 1652.7 417.2C1673.7 417.2 1690.7 434.1 1690.7 454.9C1690.7 475.7 1673.7 492.6 1652.7 492.6C1631.7 492.6 1614.7 475.7 1614.7 454.9V454.9Z" fill="black"/>
                    <path d="M1608.4 455.4C1608.4 430.5 1628.4 410.4 1653 410.4C1677.6 410.4 1697.6 430.6 1697.6 455.4C1697.6 480.3 1677.6 500.4 1653 500.4C1628.4 500.4 1608.4 480.2 1608.4 455.4V455.4Z" fill="black"/>
                    <path d="M1712.3 494.6C1712.3 490.1 1716 486.4 1720.6 486.4C1725.2 486.4 1728.9 490.1 1728.9 494.6C1728.9 499.1 1725.2 502.8 1720.6 502.8C1716 502.8 1712.3 499.2 1712.3 494.6Z" fill="black"/>
                    <path d="M1643.3 376.3C1643.3 371.8 1647 368.1 1651.6 368.1C1656.2 368.1 1659.9 371.8 1659.9 376.3C1659.9 380.8 1656.2 384.5 1651.6 384.5C1647 384.5 1643.3 380.9 1643.3 376.3Z" fill="black"/>
                    <path d="M1574.7 495.9C1574.7 491.4 1578.4 487.7 1583 487.7C1587.6 487.7 1591.3 491.4 1591.3 495.9C1591.3 500.4 1587.6 504.1 1583 504.1C1578.4 504.1 1574.7 500.4 1574.7 495.9Z" fill="black"/>
                    <path d="M1652.2 455.4L1653.6 395.4Z" fill="black"/>
                    <path d="M1652.2 455.4L1604.1 484.5Z" fill="black"/>
                    <path d="M1652.2 455.4L1696.8 484.5Z" fill="black"/>
                    <path d="M1849.4 1101C1849.4 1108.68 1855.67 1114.9 1863.4 1114.9C1871.13 1114.9 1877.4 1108.68 1877.4 1101C1877.4 1093.32 1871.13 1087.1 1863.4 1087.1C1855.67 1087.1 1849.4 1093.32 1849.4 1101Z" fill="black"/>
                    <path d="M1430.8 1101C1430.8 1108.68 1437.07 1114.9 1444.8 1114.9C1452.53 1114.9 1458.8 1108.68 1458.8 1101C1458.8 1093.32 1452.53 1087.1 1444.8 1087.1C1437.07 1087.1 1430.8 1093.32 1430.8 1101Z" fill="black"/>
                    <path d="M1846.3 329.1C1846.3 321.423 1852.57 315.2 1860.3 315.2C1868.03 315.2 1874.3 321.423 1874.3 329.1C1874.3 336.777 1868.03 343 1860.3 343C1852.57 343 1846.3 336.777 1846.3 329.1Z" fill="black"/>
                    <path d="M1427.7 330.3C1427.7 322.6 1434 316.4 1441.7 316.4C1449.5 316.4 1455.7 322.6 1455.7 330.3C1455.7 338 1449.4 344.2 1441.7 344.2C1433.9 344.2 1427.7 338 1427.7 330.3Z" fill="black"/>
                    <path d="M1500.8 626.3V440C1500.8 440 1513.4 361.1 1581.7 337.5C1634.7 337.5 1722.2 337.5 1722.2 337.5C1722.2 337.5 1781.7 346.2 1802.8 427.3C1802.8 508.9 1802.8 624.9 1802.8 624.9" fill="black"/>
                    <path d="M16.1 229H1V237.3H16.1V229Z" fill="black"/>
                    <path d="M16.1 250.5H1V258.8H16.1V250.5Z" fill="black"/>
                    <path d="M647.3 165H543V173.7H647.3V165Z" fill="black"/>
                    <path d="M710.2 175.8H543V184.5H710.2V175.8Z" fill="black"/>
                    <path d="M742.5 186.5H543V195.2H742.5V186.5Z" fill="black"/>
                    <path d="M658 197.2H543V205.9H658V197.2Z" fill="black"/>
                    <path d="M694 208H543V216.7H694V208Z" fill="black"/>
                    <path d="M651 143.5H523.6V152.2H651V143.5Z" fill="black"/>
                    <path d="M658.1 240.2H523.6V248.9H658.1V240.2Z" fill="black"/>
                    <path d="M728.9 315.4H523.6V324.1H728.9V315.4Z" fill="black"/>
                    <path d="M651 100.6H523.6V109.3H651V100.6Z" fill="black"/>
                    <path d="M1086 111.3H545.1V120H1086V111.3Z" fill="black"/>
                    <path d="M770.1 251H543V259.7H770.1V251Z" fill="black"/>
                    <path d="M656.5 261.7H587.3V270.4H656.5V261.7Z" fill="black"/>
                    <path d="M969.2 272.4H543V281.1H969.2V272.4Z" fill="black"/>
                    <path d="M694 283.2H543V291.9H694V283.2Z" fill="black"/>
                    <path d="M652.1 326.1H543V334.8H652.1V326.1Z" fill="black"/>
                    <path d="M825.7 347.6H543V356.3H825.7V347.6Z" fill="black"/>
                    <path d="M655.1 498H546V506.7H655.1V498Z" fill="black"/>
                    <path d="M813.3 519.5H543V528.2H813.3V519.5Z" fill="black"/>
                    <path d="M597.6 626.9H546V635.6H597.6V626.9Z" fill="black"/>
                    <path d="M808.8 648.4H546V657.1H808.8V648.4Z" fill="black"/>
                    <path d="M600.6 680.7H546V689.4H600.6V680.7Z" fill="black"/>
                    <path d="M803.4 702.1H546V710.8H803.4V702.1Z" fill="black"/>
                    <path d="M597.6 841.8H546V850.5H597.6V841.8Z" fill="black"/>
                    <path d="M793 863.3H546V872H793V863.3Z" fill="black"/>
                    <path d="M658 358.4H567.3V367.1H658V358.4Z" fill="black"/>
                    <path d="M728.8 541H567.3V549.7H728.8V541Z" fill="black"/>
                    <path d="M730.5 723.6H567.3V732.3H730.5V723.6Z" fill="black"/>
                    <path d="M713.9 809.6H567.3V818.3H713.9V809.6Z" fill="black"/>
                    <path d="M1146.3 379.9H588.2V388.6H1146.3V379.9Z" fill="black"/>
                    <path d="M738.8 390.6H588.2V399.3H738.8V390.6Z" fill="black"/>
                    <path d="M631.6 412.1H588.2V420.8H631.6V412.1Z" fill="black"/>
                    <path d="M808.8 444.3H588.2V453H808.8V444.3Z" fill="black"/>
                    <path d="M759.5 455.1H588.2V463.8H759.5V455.1Z" fill="black"/>
                    <path d="M797.2 465.8H588.2V474.5H797.2V465.8Z" fill="black"/>
                    <path d="M689.8 476.5H588.2V485.2H689.8V476.5Z" fill="black"/>
                    <path d="M867.2 401.3H609.3V410H867.2V401.3Z" fill="black"/>
                    <path d="M935.5 422.8H609.3V431.5H935.5V422.8Z" fill="black"/>
                    <path d="M764.9 551.7H588.2V560.4H764.9V551.7Z" fill="black"/>
                    <path d="M759.5 594.7H588.2V603.4H759.5V594.7Z" fill="black"/>
                    <path d="M754.6 605.5H588.2V614.2H754.6V605.5Z" fill="black"/>
                    <path d="M718.3 669.9H567.3V678.6H718.3V669.9Z" fill="black"/>
                    <path d="M766.2 734.4H588.2V743.1H766.2V734.4Z" fill="black"/>
                    <path d="M761.2 777.3H588.2V786H761.2V777.3Z" fill="black"/>
                    <path d="M754.6 788.1H588.2V796.8H754.6V788.1Z" fill="black"/>
                    <path d="M740.1 820.3H588.2V829H740.1V820.3Z" fill="black"/>
                    <path d="M813.4 562.5H609.3V571.2H813.4V562.5Z" fill="black"/>
                    <path d="M818.7 573.2H609.3V581.9H818.7V573.2Z" fill="black"/>
                    <path d="M1075.9 584H609.3V592.7H1075.9V584Z" fill="black"/>
                    <path d="M814.2 745.1H609.3V753.8H814.2V745.1Z" fill="black"/>
                    <path d="M818.7 755.9H609.3V764.6H818.7V755.9Z" fill="black"/>
                    <path d="M1075.9 766.6H609.3V775.3H1075.9V766.6Z" fill="black"/>
                    <path d="M644.1 79.5H511.2V93.8H644.1V79.5Z" fill="black"/>
                    <path d="M188.6 79.5H58.4V93.8H188.6V79.5Z" fill="black"/>
                    <path d="M179 121.6H1V129.9H179V121.6Z" fill="black"/>
                    <path d="M302.8 132.3H1V140.6H302.8V132.3Z" fill="black"/>
                    <path d="M228 218.3H1V226.6H228V218.3Z" fill="black"/>
                    <path d="M127.4 239.8H12.8V248.1H127.4V239.8Z" fill="black"/>
                    <path d="M122.1 261.3H12.8V269.6H122.1V261.3Z" fill="black"/>
                    <path d="M57.5 293.5H1V301.8H57.5V293.5Z" fill="black"/>
                    <path d="M68.5 325.8H1V334.1H68.5V325.8Z" fill="black"/>
                    <path d="M47.7 347.2H1V355.5H47.7V347.2Z" fill="black"/>
                    <path d="M95.2 379.5H1V387.8H95.2V379.5Z" fill="black"/>
                    <path d="M95 196.8H1V205.1H95V196.8Z" fill="black"/>
                    <path d="M68.3 175.3H1V183.6H68.3V175.3Z" fill="black"/>
                    <path d="M46.1 153.8H1V162.1H46.1V153.8Z" fill="black"/>
                    <path d="M112.8 315H1V323.3H112.8V315Z" fill="black"/>
                    <path d="M68.5 401H1V409.3H68.5V401Z" fill="black"/>
                    <path d="M84.8 411.7H1V420H84.8V411.7Z" fill="black"/>
                    <path d="M1226.5 894.1H1146.4V904.9H1226.5V894.1Z" fill="black"/>
                    <path d="M1230.7 911.8H1173.5V922.6H1230.7V911.8Z" fill="black"/>
                    <path d="M514 919.2H467.1V952H514V919.2Z" fill="black"/>
                    </svg>