<svg id="Capa_1" enable-background="new 0 0 512 512" height="512" viewBox="0 0 512 512" width="512" xmlns="http://www.w3.org/2000/svg"><g><g><path d="m354.684 27.884-210.813 229.986-18.975 20.701v158.356l131.104 67.573c137.243 0 248.5-111.257 248.5-248.5 0-102.175-61.673-189.932-149.816-228.116z" fill="#efedff"/><path d="m143.871 257.87-106.555 116.246c42.027 77.645 124.195 130.384 218.684 130.384-70.831-62.498-111.597-152.229-112.129-246.63z" fill="#d4d4ff"/></g><g><g><path d="m354.684 27.884c-30.252-13.105-63.616-20.384-98.684-20.384l-131.104 50.817v197.683h4.963 50.463l24.69-20.436c14.272-30.072 44.755-51.177 80.009-51.7 26.392-.392 50.225 10.581 66.927 28.338 8.108 8.62 22.578 4.678 25.399-6.815 4.671-19.029 7.152-38.918 7.152-59.387.001-42.754-10.799-82.983-29.815-118.116z" fill="#b9f0ff"/><path d="m256 7.5c-89.202 0-167.598 47.411-211.441 118.245v130.255h99.3c0-95.085 40.842-185.59 112.141-248.5z" fill="#7ce3ff"/></g><g><path d="m208.271 318.579c-7.596-13.239-11.924-28.593-11.882-44.961.035-13.573 3.129-26.477 8.624-38.054h-19.484c-13.98 0-27.653-2.248-40.573-6.493h-20.059v147.567l48.053 15.131c.006-.001.013-.002.019-.003 34.365-5.131 52.594-43.049 35.302-73.187z" fill="#ff8e9e"/><path d="m144.956 229.071c-28.328-9.309-53.03-28.228-69.383-54.154l-31.014-49.171c-23.769 38.401-37.393 83.681-37.053 132.039.296 42.088 11.059 81.688 29.81 116.331 30.253 13.105 63.616 20.384 98.684 20.384 12.556 0 24.895-.933 36.95-2.731-18.964-42.228-29.091-88.43-29.091-135.769 0-9.024.37-18.007 1.097-26.929z" fill="#ea5b70"/></g></g><g><circle cx="104.294" cy="296.192" fill="#d34459" r="30"/><g fill="#d4d4ff"><circle cx="284.294" cy="416.192" r="50"/><circle cx="404.294" cy="326.192" r="35"/></g><g><circle cx="124.294" cy="126.192" fill="#55dafe" r="30"/><g fill="#7ce3ff"><circle cx="284.294" cy="76.192" r="30"/><circle cx="224.294" cy="146.192" r="20"/></g></g></g><g><path d="m384.633 207.176c4.888-19.917 7.367-40.5 7.367-61.176 0-4.143-3.357-7.5-7.5-7.5s-7.5 3.357-7.5 7.5c0 19.473-2.333 38.852-6.935 57.6-1.422 5.789-8.641 7.726-12.653 3.464-46.249-49.174-125.725-37.213-156.993 21.001h-14.89c-37.969 0-74.381-18.022-97.403-48.211-2.512-3.293-7.219-3.928-10.512-1.416-3.294 2.512-3.928 7.219-1.416 10.512 25.842 33.886 66.714 54.115 109.331 54.115h8.383c-8.781 26.082-5.98 55.14 7.854 79.247 14.682 25.593-.637 57.668-29.93 62.04-4.096.614-6.908 4.43-6.295 8.525.557 3.721 3.764 6.39 7.417 6.39.368 0 .742-.027 1.117-.083 40.237-6.007 60.387-50.03 40.7-84.338-13.076-22.787-14.745-51.291-2.988-76.065 24.595-51.82 94.221-64.477 134.7-21.438 12.114 12.871 33.879 7.208 38.146-10.167z"/><path d="m417.53 434.736c-44.387 40.152-101.755 62.264-161.533 62.264-88.602-.001-169.868-48.455-212.085-126.455-18.845-34.818-28.912-74.425-28.912-114.526 0-40.601 10.27-80.393 29.801-115.831l14.588 23.128c2.211 3.504 6.842 4.55 10.345 2.343 3.504-2.21 4.553-6.842 2.343-10.345l-18.642-29.555c32.198-49.89 80.991-86.004 137.896-101.92 3.988-1.116 6.318-5.254 5.202-9.243-1.116-3.99-5.252-6.317-9.243-5.203-110.766 30.98-187.29 132.35-187.29 246.626 0 42.485 10.644 84.576 30.721 121.667 44.841 82.846 131.162 134.313 225.276 134.314 63.504 0 124.444-23.488 171.596-66.139 3.072-2.779 3.31-7.521.531-10.594-2.778-3.071-7.52-3.308-10.594-.531z"/><path d="m256 0c-12.89 0-25.844.976-38.502 2.899-4.095.623-6.91 4.447-6.288 8.542s4.45 6.904 8.542 6.288c11.915-1.811 24.11-2.729 36.248-2.729 32.355 0 63.729 6.324 93.309 18.765 5.558 10.543 10.366 21.554 14.285 32.78 1.367 3.912 5.646 5.974 9.554 4.608 3.91-1.365 5.974-5.642 4.608-9.553-2.059-5.895-4.345-11.735-6.843-17.487 77.186 41.861 126.026 122.801 126.087 211.714v.173c.001 58.037-20.991 114.14-59.11 157.975-2.719 3.126-2.388 7.863.737 10.581 3.128 2.72 7.866 2.386 10.581-.737 40.493-46.566 62.793-106.165 62.792-167.819v-.178c-.096-141.255-114.602-255.822-256-255.822z"/><path d="m444.294 183.692c4.143 0 7.5-3.357 7.5-7.5s-3.357-7.5-7.5-7.5c-15.163 0-27.5 12.337-27.5 27.5s12.337 27.5 27.5 27.5c4.143 0 7.5-3.357 7.5-7.5s-3.357-7.5-7.5-7.5c-6.893 0-12.5-5.607-12.5-12.5s5.607-12.5 12.5-12.5z"/><path d="m239.345 280.134v-12c0-4.143-3.357-7.5-7.5-7.5s-7.5 3.357-7.5 7.5v12c0 4.143 3.357 7.5 7.5 7.5s7.5-3.358 7.5-7.5z"/><path d="m356.742 260.634c-4.143 0-7.5 3.357-7.5 7.5v12c0 4.143 3.357 7.5 7.5 7.5s7.5-3.357 7.5-7.5v-12c0-4.143-3.357-7.5-7.5-7.5z"/><path d="m316.412 284.703c2.722-3.122 2.396-7.86-.728-10.581-3.122-2.722-7.861-2.396-10.581.728-5.725 6.569-15.902 6.562-21.62 0-2.721-3.124-7.459-3.448-10.581-.728-3.123 2.721-3.449 7.459-.728 10.581 11.701 13.429 32.547 13.418 44.238 0z"/><path d="m104.294 318.692c-4.143 0-7.5 3.357-7.5 7.5s3.357 7.5 7.5 7.5c20.678 0 37.5-16.822 37.5-37.5s-16.822-37.5-37.5-37.5-37.5 16.822-37.5 37.5c0 4.143 3.357 7.5 7.5 7.5s7.5-3.357 7.5-7.5c0-12.406 10.094-22.5 22.5-22.5s22.5 10.094 22.5 22.5-10.094 22.5-22.5 22.5z"/><path d="m284.294 473.692c31.706 0 57.5-25.794 57.5-57.5 0-4.143-3.357-7.5-7.5-7.5s-7.5 3.357-7.5 7.5c0 23.435-19.065 42.5-42.5 42.5s-42.5-19.065-42.5-42.5 19.065-42.5 42.5-42.5c4.143 0 7.5-3.357 7.5-7.5s-3.357-7.5-7.5-7.5c-31.706 0-57.5 25.794-57.5 57.5s25.794 57.5 57.5 57.5z"/><path d="m446.794 326.192c0-23.435-19.065-42.5-42.5-42.5s-42.5 19.065-42.5 42.5 19.065 42.5 42.5 42.5c4.143 0 7.5-3.357 7.5-7.5s-3.357-7.5-7.5-7.5c-15.163 0-27.5-12.337-27.5-27.5s12.337-27.5 27.5-27.5 27.5 12.337 27.5 27.5c0 4.143 3.357 7.5 7.5 7.5s7.5-3.357 7.5-7.5z"/><path d="m124.294 148.692c-4.143 0-7.5 3.357-7.5 7.5s3.357 7.5 7.5 7.5c20.678 0 37.5-16.822 37.5-37.5s-16.822-37.5-37.5-37.5-37.5 16.822-37.5 37.5c0 4.143 3.357 7.5 7.5 7.5s7.5-3.357 7.5-7.5c0-12.407 10.094-22.5 22.5-22.5s22.5 10.093 22.5 22.5-10.094 22.5-22.5 22.5z"/><path d="m284.293 38.692c-20.725 0-37.5 16.77-37.5 37.5 0 10.016 3.9 19.433 10.983 26.516 2.93 2.928 7.679 2.929 10.606 0 2.93-2.929 2.93-7.678.001-10.607-4.25-4.25-6.591-9.9-6.591-15.91 0-12.434 10.063-22.5 22.5-22.5 12.436 0 22.5 10.061 22.5 22.5 0 6.01-2.34 11.661-6.59 15.91-2.929 2.929-2.929 7.678.001 10.607 2.926 2.927 7.676 2.929 10.606 0 7.082-7.083 10.982-16.5 10.982-26.517.002-20.725-16.768-37.499-37.498-37.499z"/><path d="m224.294 173.692c15.163 0 27.5-12.337 27.5-27.5s-12.337-27.5-27.5-27.5c-4.143 0-7.5 3.358-7.5 7.5 0 4.143 3.357 7.5 7.5 7.5 6.893 0 12.5 5.607 12.5 12.5s-5.607 12.5-12.5 12.5-12.5-5.607-12.5-12.5c0-4.143-3.357-7.5-7.5-7.5s-7.5 3.357-7.5 7.5c0 15.163 12.337 27.5 27.5 27.5z"/></g></g></svg>