<svg width="568" height="560" viewBox="0 0 568 560" fill="none" xmlns="http://www.w3.org/2000/svg">
<g clip-path="url(#clip0)">
<!--asta --><path d="M138.544 458.407L103.044 423.407C99.6385 420.051 94.511 419.064 90.0746 420.91C6.887 455.537 0 500.943 0 548.333C0 554.776 5.29838 560 11.8337 560C59.9007 560 105.956 553.21 141.054 471.193C142.933 466.825 141.94 461.769 138.544 458.407Z" fill="#FFC107"/>
<path d="M209.544 435.073L126.711 353.406C124.308 350.963 120.92 349.712 117.481 349.999C114.058 350.249 110.915 351.952 108.866 354.666L73.3663 401.333C70.9578 404.5 70.3432 408.656 71.7333 412.37C77.8282 427.034 86.8041 440.363 98.1453 451.593L109.979 463.26C121.369 474.441 134.89 483.291 149.762 489.3C151.067 489.767 152.445 490.004 153.833 490C156.393 490 158.885 489.181 160.933 487.667L208.266 452.667C213.494 448.801 214.552 441.488 210.63 436.333C210.298 435.897 209.935 435.483 209.544 435.097V435.073Z" fill="#E53935"/>
<path d="M348.468 362.903C344.464 360.931 339.674 361.355 336.091 364L241.424 434C238.445 436.203 236.691 439.661 236.691 443.333V525C236.691 531.443 241.989 536.667 248.524 536.667C251.085 536.667 253.576 535.848 255.624 534.334L350.291 464.334C353.27 462.131 355.024 458.673 355.024 455.001V373.334C355.019 368.913 352.481 364.875 348.468 362.903Z" fill="#F44336"/>
<path d="M199.913 216.44C197.907 212.493 193.812 210 189.334 210H106.5C102.776 210 99.268 211.729 97.0337 214.667L26.0337 308C22.112 313.155 23.1715 320.468 28.4 324.333C30.4479 325.848 32.9395 326.666 35.5 326.666H118.334C122.058 326.666 125.566 324.937 127.8 321.999L198.8 228.666C201.491 225.129 201.922 220.394 199.913 216.44Z" fill="#F44336"/>
<path d="M556.166 0C436.389 0 326.6 24.407 97.0337 331.333C94.0939 335.258 93.943 340.574 96.6554 344.656C111.125 366.083 127.471 386.218 145.503 404.833L157.337 416.5C176.218 434.279 196.641 450.394 218.374 464.66C222.515 467.37 227.932 467.239 231.935 464.333C543.244 238 568 129.757 568 11.667C568 5.22375 562.702 0 556.166 0Z" fill="#CFD8DC"/>
<path d="M390.5 221.667C416.642 221.667 437.834 200.773 437.834 175C437.834 149.226 416.642 128.333 390.5 128.333C364.358 128.333 343.166 149.226 343.166 175C343.166 200.773 364.358 221.667 390.5 221.667Z" fill="#FAFAFA"/>
<path d="M390.5 233.333C357.823 233.333 331.334 207.216 331.334 175C331.334 142.784 357.823 116.667 390.5 116.667C423.177 116.667 449.666 142.784 449.666 175C449.666 207.216 423.177 233.333 390.5 233.333ZM390.5 140C370.894 140 355 155.67 355 175C355 194.33 370.894 210 390.5 210C410.106 210 426 194.33 426 175C426 155.67 410.106 140 390.5 140Z" fill="#F44336"/>
<!-- <path d="M11.8337 560C5.29838 560 0 554.776 0 548.333C0 500.966 6.887 455.56 90.0513 420.91C96.0774 418.398 103.028 421.176 105.577 427.117C108.126 433.058 105.307 439.911 99.2813 442.424C23.6663 473.924 23.6663 511.747 23.6663 548.334C23.6663 554.776 18.369 560 11.8337 560Z" fill="black"/>
<path d="M11.8337 560C5.29838 560 0 554.776 0 548.333C0 541.89 5.29838 536.666 11.8337 536.666C48.9434 536.666 87.33 536.666 119.28 462.139C121.696 456.152 128.578 453.23 134.65 455.613C140.723 457.995 143.686 464.779 141.27 470.766C141.209 470.917 141.145 471.067 141.077 471.216C105.955 553.21 59.9007 560 11.8337 560Z" fill="black"/> -->
<path d="M118.334 326.667H35.5C28.9647 326.667 23.6663 321.443 23.6663 315C23.6663 312.476 24.4972 310.019 26.0326 308L97.0326 214.667C99.268 211.729 102.776 210 106.5 210H189.334C195.869 210 201.167 215.224 201.167 221.667C201.167 228.11 195.869 233.334 189.334 233.334H112.417L59.1674 303.334H118.334C124.869 303.334 130.167 308.558 130.167 315.001C130.166 321.443 124.869 326.667 118.334 326.667Z" fill="black"/>
<path d="M224.834 466.667C222.53 466.665 220.275 466.001 218.349 464.754C196.608 450.5 176.183 434.385 157.313 416.594L145.479 404.927C127.446 386.312 111.101 366.177 96.631 344.75C93.8809 340.642 94.0417 335.274 97.0337 331.333C326.6 24.407 436.389 0 556.166 0C562.702 0 568 5.22375 568 11.667C568 129.78 543.244 238 231.934 464.334C229.885 465.848 227.394 466.667 224.834 466.667ZM121.007 338.613C133.367 356.273 147.136 372.932 162.187 388.43L174.021 400.097C189.726 414.951 206.624 428.529 224.55 440.697C511.01 231.327 542.417 132.813 544.334 23.333C433.29 25.223 333.368 56.163 121.007 338.613Z" fill="black"/>
<path d="M153.834 490C152.436 490.008 151.048 489.763 149.739 489.277C134.867 483.279 121.345 474.436 109.956 463.26L98.122 451.593C86.7786 440.366 77.8016 427.035 71.71 412.37C70.3266 408.652 70.9501 404.496 73.3663 401.333L108.866 354.666C112.788 349.511 120.205 348.467 125.433 352.333C130.66 356.199 131.721 363.512 127.799 368.666L96.4879 409.803C101.23 419.122 107.429 427.649 114.854 435.073L126.687 446.74C134.224 454.052 142.872 460.16 152.318 464.847L194.066 434C199.298 430.138 206.714 431.189 210.63 436.347C214.542 441.499 213.484 448.801 208.266 452.666L160.933 487.666C158.885 489.181 156.394 490 153.834 490Z" fill="black"/>
<path d="M248.5 536.667C241.965 536.667 236.666 531.443 236.666 525V443.333C236.666 436.89 241.965 431.666 248.5 431.666C255.035 431.666 260.334 436.89 260.334 443.333V501.666L331.334 449.166V373.333C331.334 366.89 336.632 361.666 343.167 361.666C349.703 361.666 355 366.89 355 373.333V455C355 458.672 353.246 462.13 350.266 464.333L255.6 534.333C253.552 535.848 251.06 536.667 248.5 536.667Z" fill="black"/>
<path d="M390.5 233.333C357.823 233.333 331.334 207.216 331.334 175C331.334 142.784 357.823 116.667 390.5 116.667C423.177 116.667 449.666 142.784 449.666 175C449.666 207.216 423.177 233.333 390.5 233.333ZM390.5 140C370.894 140 355 155.67 355 175C355 194.33 370.894 210 390.5 210C410.106 210 426 194.33 426 175C426 155.67 410.106 140 390.5 140Z" fill="black"/>
<path d="M407.792 129.041L356.501 122.086C348.705 121.029 350.522 106.414 357.899 107.415L409.192 114.37C415.472 115.223 414.222 129.914 407.792 129.041Z" fill="#434649"/>
<path d="M351.998 39.341C344.362 36.4791 341.038 26.5124 344.573 17.0796C348.108 7.64677 357.165 2.31998 364.801 5.18184C372.437 8.04371 375.761 18.0105 372.226 27.4433C368.691 36.8761 359.635 42.2029 351.998 39.341Z" fill="#FFD1B0"/>
<path d="M359.086 35.9999L360.212 45.554H354.132V38.9192L359.086 35.9999Z" fill="#FFD1B0"/>
<path d="M349.905 36.4936L348.819 46.0477H354.899V39.2233L349.905 36.4936Z" fill="#FFD1B0"/>
<path d="M344.187 17.7158C342.645 25.2393 341.387 22.8471 359.05 16.459C367.075 13.5562 361.962 13.0909 373.984 16.2744C373.487 8.87204 366.413 3.19389 358.185 3.59192C349.956 3.98995 346.26 10.3103 344.187 17.7158Z" fill="#101010"/>
<path d="M414.682 120.017L422.512 180.756C423.042 184.836 415.482 186.878 413.772 182.227C410.342 172.926 409.312 168.114 406.282 159.135C404.872 154.966 403.261 152.865 402.616 148.481C401.974 144.12 403.202 141.543 403.015 137.121C402.761 131.278 400.817 122.369 400.817 122.369C399.626 113.137 413.552 111.281 414.682 120.017Z" fill="#434649"/>
<path d="M434.492 184.594C437.312 184.089 438.751 183.573 440.951 183.436C443.151 183.298 446.942 183.717 447.802 185.372C448.632 186.984 447.492 190.011 447.492 190.011L440.451 191.766L427.772 194.98L416.382 197.045C416.382 197.045 415.952 193.935 415.732 191.937C415.462 189.625 414.892 188.269 414.232 185.9C413.702 183.954 412.502 180.187 412.502 180.187L423.112 178.957C423.112 178.957 423.002 181.227 424.052 182.379C425.432 183.899 426.792 184.155 428.782 184.678C432.102 185.554 431.672 185.099 434.492 184.594Z" fill="#5D6359"/>
<path d="M400.349 136.707L343.399 126.201C334.743 124.604 337.33 110.844 345.521 112.355L402.471 122.861C409.452 124.149 407.492 138.024 400.349 136.707Z" fill="#434649"/>
<path d="M406.582 130.439L399.987 188.441C399.544 192.337 391.842 192.307 391.282 187.584C390.162 178.138 390.287 173.438 389.471 164.39C389.092 160.188 388.041 157.843 388.44 153.636C388.838 149.452 390.614 147.387 391.456 143.261C392.569 137.807 392.777 129.099 392.777 129.099C393.779 120.282 407.532 122.097 406.582 130.439Z" fill="#434649"/>
<path d="M410.442 197.472C413.302 197.62 414.822 197.447 416.992 197.813C419.172 198.178 422.762 199.447 423.222 201.254C423.672 203.014 421.872 205.702 421.872 205.702L414.612 205.811L401.531 206.057L389.977 205.48C389.977 205.48 390.266 202.354 390.498 200.357C390.766 198.044 390.514 196.594 390.419 194.139C390.34 192.122 390.032 188.182 390.032 188.182L400.639 189.395C400.639 189.395 400.015 191.581 400.774 192.941C401.774 194.735 403.043 195.293 404.862 196.255C407.892 197.863 407.582 197.323 410.442 197.472Z" fill="#5D6359"/>
<path d="M368.35 89.984C366.554 85.2058 357.969 62.4422 356.124 57.5312C354.278 52.6201 361.604 53.2304 362.431 54.7191C363.259 56.2079 363.055 57.2212 364.121 58.499C366.901 61.8317 367.946 64.4549 369.171 68.8265C370.423 73.2982 371.093 77.0573 371.093 77.0573C372.33 80.0789 372.963 82.9711 374.673 87.5203C376.382 92.0694 370.145 94.7622 368.35 89.984Z" fill="#FFD1B0" stroke="#FFD1B0" stroke-width="1.51238" stroke-linecap="round" stroke-linejoin="round"/>
<path d="M401.675 91.0895C397.501 91.4283 377.608 93.0766 373.317 93.4249C369.027 93.7731 368.558 85.5097 372.327 85.5659C376.095 85.622 397.251 86.7482 401.225 86.4256C405.201 86.103 405.852 90.7506 401.675 91.0895Z" fill="#FFD1B0"/>
<path d="M363.056 47.1562C365.575 51.0183 363.942 66.1157 363.056 76.9999C362.17 87.8841 365.281 109.653 364.829 109.653C364.829 109.653 336.416 122.208 336.205 121.59C335.994 120.972 332.649 119.67 332.42 117.787C328.951 89.2885 330.959 44.4295 348.439 40.8363C359.269 45.7518 360.538 43.294 363.056 47.1562Z" fill="white" stroke="#D1D1D1" stroke-width="1.39678" stroke-linecap="round" stroke-linejoin="round"/>
<path d="M338.017 92.0526C339.201 87.0836 344.812 63.3928 346.029 58.2857C347.246 53.1786 353.608 58.0518 353.485 59.7602C353.362 61.4685 352.574 62.1726 352.794 63.8512C353.371 68.2292 352.776 70.9929 351.309 75.2892C349.808 79.6839 348.196 83.1503 348.196 83.1503C347.541 86.353 346.408 89.0899 345.281 93.8206C344.154 98.5514 336.833 97.0215 338.017 92.0526Z" fill="#FFD1B0" stroke="#FFD1B0" stroke-width="1.51238" stroke-linecap="round" stroke-linejoin="round"/>
<path d="M355.386 60.0569C355.227 58.5919 354.667 56.3581 353.804 54.3527C353.293 53.1632 352.696 52.1071 352.056 51.3614C351.402 50.6008 350.805 50.2781 350.291 50.2781C349.771 50.2781 349.149 50.6077 348.458 51.3746C347.782 52.1247 347.142 53.1845 346.586 54.3741C345.648 56.3809 345.019 58.6042 344.838 60.0569H344.844H344.869H344.894H344.918H344.943H344.967H344.991H345.015H345.039H345.062H345.086H345.109H345.133H345.156H345.179H345.201H345.224H345.247H345.269H345.291H345.313H345.335H345.357H345.379H345.4H345.422H345.443H345.464H345.485H345.506H345.527H345.548H345.568H345.589H345.609H345.629H345.649H345.669H345.689H345.708H345.728H345.747H345.767H345.786H345.805H345.824H345.842H345.861H345.879H345.898H345.916H345.934H345.952H345.97H345.988H346.006H346.023H346.041H346.058H346.075H346.093H346.11H346.126H346.143H346.16H346.176H346.193H346.209H346.225H346.242H346.258H346.273H346.289H346.305H346.32H346.336H346.351H346.367H346.382H346.397H346.412H346.427H346.441H346.456H346.471H346.485H346.499H346.514H346.528H346.542H346.556H346.57H346.583H346.597H346.611H346.624H346.637H346.651H346.664H346.677H346.69H346.703H346.716H346.729H346.741H346.754H346.766H346.779H346.791H346.803H346.815H346.827H346.839H346.851H346.863H346.875H346.886H346.898H346.909H346.921H346.932H346.943H346.955H346.966H346.977H346.988H346.998H347.009H347.02H347.03H347.041H347.051H347.062H347.072H347.082H347.093H347.103H347.113H347.123H347.133H347.142H347.152H347.162H347.172H347.181H347.191H347.2H347.209H347.219H347.228H347.237H347.246H347.255H347.264H347.273H347.282H347.291H347.3H347.308H347.317H347.325H347.334H347.342H347.351H347.359H347.368H347.376H347.384H347.392H347.4H347.408H347.416H347.424H347.432H347.44H347.448H347.455H347.463H347.471H347.478H347.486H347.493H347.501H347.508H347.516H347.523H347.53H347.537H347.545H347.552H347.559H347.566H347.573H347.58H347.587H347.594H347.601H347.608H347.614H347.621H347.628H347.635H347.641H347.648H347.655H347.661H347.668H347.674H347.681H347.687H347.694H347.7H347.706H347.713H347.719H347.725H347.732H347.738H347.744H347.75H347.757H347.763H347.769H347.775H347.781H347.787H347.793H347.799H347.805H347.811H347.817H347.823H347.829H347.835H347.841H347.847H347.853H347.858H347.864H347.87H347.876H347.882H347.888H347.893H347.899H347.905H347.911H347.916H347.922H347.928H347.934H347.939H347.945H347.951H347.957H347.962H347.968H347.974H347.979H347.985H347.991H347.997H348.002H348.008H348.014H348.019H348.025H348.031H348.037H348.042H348.048H348.054H348.06H348.065H348.071H348.077H348.083H348.088H348.094H348.1H348.106H348.112H348.117H348.123H348.129H348.135H348.141H348.147H348.153H348.159H348.165H348.171H348.177H348.183H348.189H348.195H348.201H348.207H348.213H348.219H348.225H348.231H348.238H348.244H348.25H348.256H348.263H348.269H348.275H348.282H348.288H348.294H348.301H348.307H348.314H348.32H348.327H348.334H348.34H348.347H348.354H348.36H348.367H348.374H348.381H348.388H348.395H348.402H348.409H348.416H348.423H348.43H348.437H348.444H348.451H348.459H348.466H348.473H348.481H348.488H348.496H348.503H348.511H348.518H348.526H348.534H348.542H348.549H348.557H348.565H348.573H348.581H348.589H348.597H348.606H348.614H348.622H348.631H348.639H348.647H348.656H348.664H348.673H348.682H348.69H348.699H348.708H348.717H348.726H348.735H348.744H348.753H348.763H348.772H348.781H348.791H348.8H348.81H348.819H348.829H348.839H348.849H348.858H348.868H348.878H348.889H348.899H348.909H348.919H348.93H348.94H348.951H348.961H348.972H348.983H348.994H349.004H349.015H349.026H349.038H349.049H349.06H349.072H349.083H349.095H349.106H349.118H349.13H349.141H349.153H349.165H349.178H349.19H349.202H349.214H349.227H349.24H349.252H349.265H349.278H349.291H349.304H349.317H349.33H349.343H349.357H349.37H349.384H349.397H349.411H349.425H349.439H349.453H349.467H349.481H349.496H349.51H349.525H349.539H349.554H349.569H349.584H349.599H349.614H349.629H349.644H349.66H349.676H349.691H349.707H349.723H349.739H349.755H349.771H349.787H349.804H349.82H349.837H349.854H349.871H349.888H349.905H349.922H349.939H349.957H349.974H349.992H350.01H350.028H350.046H350.064H350.082H350.101H350.119H350.138H350.156H350.175H350.194H350.213H350.233H350.252H350.271H350.291H350.311H350.33H350.35H350.369H350.388H350.407H350.426H350.444H350.463H350.481H350.5H350.518H350.536H350.554H350.572H350.59H350.607H350.625H350.642H350.66H350.677H350.694H350.711H350.728H350.744H350.761H350.777H350.794H350.81H350.826H350.842H350.858H350.874H350.889H350.905H350.92H350.936H350.951H350.966H350.981H350.996H351.011H351.026H351.04H351.055H351.069H351.084H351.098H351.112H351.126H351.14H351.154H351.167H351.181H351.194H351.208H351.221H351.234H351.247H351.26H351.273H351.286H351.299H351.312H351.324H351.337H351.349H351.361H351.373H351.386H351.398H351.409H351.421H351.433H351.445H351.456H351.468H351.479H351.491H351.502H351.513H351.524H351.535H351.546H351.557H351.567H351.578H351.589H351.599H351.61H351.62H351.63H351.64H351.651H351.661H351.671H351.681H351.69H351.7H351.71H351.719H351.729H351.738H351.748H351.757H351.766H351.776H351.785H351.794H351.803H351.812H351.821H351.829H351.838H351.847H351.855H351.864H351.872H351.881H351.889H351.897H351.906H351.914H351.922H351.93H351.938H351.946H351.954H351.962H351.969H351.977H351.985H351.992H352H352.007H352.015H352.022H352.03H352.037H352.044H352.051H352.058H352.066H352.073H352.08H352.087H352.093H352.1H352.107H352.114H352.121H352.127H352.134H352.141H352.147H352.154H352.16H352.167H352.173H352.179H352.186H352.192H352.198H352.204H352.211H352.217H352.223H352.229H352.235H352.241H352.247H352.253H352.259H352.265H352.271H352.277H352.282H352.288H352.294H352.3H352.305H352.311H352.317H352.322H352.328H352.333H352.339H352.344H352.35H352.355H352.361H352.366H352.372H352.377H352.382H352.388H352.393H352.398H352.404H352.409H352.414H352.42H352.425H352.43H352.435H352.441H352.446H352.451H352.456H352.461H352.466H352.472H352.477H352.482H352.487H352.492H352.497H352.502H352.507H352.513H352.518H352.523H352.528H352.533H352.538H352.543H352.548H352.553H352.558H352.563H352.568H352.574H352.579H352.584H352.589H352.594H352.599H352.604H352.609H352.614H352.62H352.625H352.63H352.635H352.64H352.645H352.651H352.656H352.661H352.666H352.671H352.677H352.682H352.687H352.693H352.698H352.703H352.709H352.714H352.719H352.725H352.73H352.736H352.741H352.746H352.752H352.758H352.763H352.769H352.774H352.78H352.786H352.791H352.797H352.803H352.808H352.814H352.82H352.826H352.832H352.838H352.844H352.849H352.855H352.861H352.868H352.874H352.88H352.886H352.892H352.898H352.905H352.911H352.917H352.924H352.93H352.937H352.943H352.95H352.956H352.963H352.969H352.976H352.983H352.99H352.997H353.003H353.01H353.017H353.024H353.031H353.038H353.046H353.053H353.06H353.067H353.075H353.082H353.09H353.097H353.105H353.112H353.12H353.128H353.136H353.143H353.151H353.159H353.167H353.175H353.183H353.192H353.2H353.208H353.217H353.225H353.234H353.242H353.251H353.259H353.268H353.277H353.286H353.295H353.304H353.313H353.322H353.331H353.34H353.35H353.359H353.369H353.378H353.388H353.398H353.407H353.417H353.427H353.437H353.447H353.457H353.468H353.478H353.488H353.499H353.509H353.52H353.531H353.541H353.552H353.563H353.574H353.585H353.596H353.608H353.619H353.631H353.642H353.654H353.665H353.677H353.689H353.701H353.713H353.725H353.737H353.75H353.762H353.775H353.787H353.8H353.813H353.825H353.838H353.851H353.865H353.878H353.891H353.905H353.918H353.932H353.946H353.959H353.973H353.987H354.001H354.016H354.03H354.044H354.059H354.074H354.088H354.103H354.118H354.133H354.148H354.164H354.179H354.195H354.21H354.226H354.242H354.258H354.274H354.29H354.306H354.323H354.339H354.356H354.372H354.389H354.406H354.423H354.441H354.458H354.475H354.493H354.511H354.528H354.546H354.564H354.582H354.601H354.619H354.638H354.656H354.675H354.694H354.713H354.732H354.751H354.771H354.79H354.81H354.83H354.85H354.87H354.89H354.91H354.931H354.951H354.972H354.993H355.014H355.035H355.056H355.077H355.099H355.12H355.142H355.164H355.186H355.208H355.231H355.253H355.276H355.299H355.321H355.345H355.368H355.386Z" fill="white" stroke="#D1D1D1" stroke-width="1.51238"/>
<path d="M366.816 110.908C362.746 108.763 343.329 98.5656 339.146 96.3604C334.962 94.1552 339.305 87.0591 342.77 89.2949C346.235 91.5306 365.22 104.753 369.095 106.796C372.97 108.838 370.886 113.054 366.816 110.908Z" fill="#FFD1B0"/>
<path d="M361.334 107.987L375.979 108.621L377.851 109.429L375.916 110.072L361.272 109.439C361.272 109.439 361.458 109.261 361.494 108.721C361.532 108.162 361.334 107.987 361.334 107.987Z" fill="#714709"/>
<path d="M377.858 109.429L375.986 108.621L375.923 110.073L377.858 109.429Z" fill="#D1830E"/>
<path d="M415.746 73.879L402.593 66.2489L390.064 87.8471L403.217 95.4771L415.746 73.879Z" fill="white" stroke="#D9D6D6" stroke-width="0.3"/>
</g>
<defs>
<clipPath id="clip0">
<rect width="568" height="560" fill="white"/>
</clipPath>
</defs>
</svg>
