<svg width="515" height="515" viewBox="0 0 515 515" fill="none" xmlns="http://www.w3.org/2000/svg">
<g clip-path="url(#clip0)">
<path d="M497.784 235.913L335.651 193.246C331.384 191.113 324.984 193.246 322.851 186.846L275.917 16.18C271.65 5.513 260.984 -0.886996 248.184 1.247C241.784 3.38 235.384 9.78 233.251 16.18L192.718 178.313C190.585 182.58 192.718 188.98 186.318 191.113L15.651 238.046C4.98399 242.313 -1.41601 252.98 0.716986 265.78C2.84999 272.18 9.24999 278.58 15.65 280.713L177.783 321.246C182.05 323.379 188.45 321.246 190.583 327.646L237.516 498.313C243.916 517.513 271.649 517.513 278.049 498.313L324.982 325.513L497.782 278.58C508.449 274.313 514.849 263.647 512.715 250.847C508.451 244.446 504.184 238.046 497.784 235.913Z" fill="url(#paint0_linear)"/>
<path d="M425.251 182.58L388.984 161.247L435.917 80.18L354.85 127.113L333.517 90.846L482.851 5.513C502.051 -5.154 521.251 16.18 512.718 35.38L425.251 182.58Z" fill="#34CDFA"/>
<path d="M88.184 182.58L2.85101 33.246C-7.81599 14.046 13.518 -5.154 32.718 3.379L182.051 88.712L160.718 124.979L79.651 80.179L126.584 161.246L88.184 182.58Z" fill="#34CDFA"/>
<path d="M160.717 387.38L79.65 434.313L126.583 353.246L90.316 331.913L4.98401 481.246C-5.68299 500.446 15.651 521.779 34.851 511.113L184.184 425.78L160.717 387.38Z" fill="#34CDFA"/>
<path d="M491.384 513.246C487.117 513.246 484.984 513.246 480.717 511.113L331.384 425.78L352.717 389.513L433.784 436.446L386.85 355.38L423.117 334.047L508.45 483.38C516.984 496.18 506.317 513.246 491.384 513.246Z" fill="#34CDFA"/>
<path d="M256.717 299.913C280.281 299.913 299.384 280.81 299.384 257.246C299.384 233.682 280.281 214.579 256.717 214.579C233.153 214.579 214.05 233.682 214.05 257.246C214.05 280.81 233.153 299.913 256.717 299.913Z" fill="#34CDFA"/>
</g>
<defs>
<linearGradient id="paint0_linear" x1="123.951" y1="389.013" x2="388.698" y2="124.203" gradientUnits="userSpaceOnUse">
<stop/>
<stop offset="1" stop-color="#C8C8C8"/>
</linearGradient>
<clipPath id="clip0">
<rect width="514.801" height="514.801" fill="white"/>
</clipPath>
</defs>
</svg>
