<svg width="392" height="489" viewBox="0 0 392 489" fill="none" xmlns="http://www.w3.org/2000/svg">
<path d="M391.3 422.7L363.3 107.4C362.7 100.4 356.8 95.1 349.9 95.1H292.3C291.5 42.5 248.5 0 195.7 0C142.9 0 99.9 42.5 99.1 95.1H41.5C34.5 95.1 28.7 100.4 28.1 107.4L0.100002 422.7C0.100002 423.1 0 423.5 0 423.9C0 459.8 32.9 489 73.4 489H318C358.5 489 391.4 459.8 391.4 423.9C391.4 423.5 391.4 423.1 391.3 422.7ZM195.7 27C233.6 27 264.5 57.4 265.3 95.1H126.1C126.9 57.4 157.8 27 195.7 27ZM318 462H73.4C48 462 27.4 445.2 27 424.5L53.8 122.2H99V163.2C99 170.7 105 176.7 112.5 176.7C120 176.7 126 170.7 126 163.2V122.2H265.3V163.2C265.3 170.7 271.3 176.7 278.8 176.7C286.3 176.7 292.3 170.7 292.3 163.2V122.2H337.5L364.4 424.5C364 445.2 343.3 462 318 462Z" fill="white"/>
</svg>
