<svg width="512" height="512" viewBox="0 0 512 512" fill="none" xmlns="http://www.w3.org/2000/svg">
<path d="M105.552 86H105.282C99.759 86 95.282 90.477 95.282 96C95.282 101.523 99.759 106 105.282 106H105.552C111.075 106 115.552 101.523 115.552 96C115.552 90.477 111.075 86 105.552 86Z" fill="white"/>
<path d="M482 86H145.517C139.994 86 135.517 90.477 135.517 96C135.517 101.523 139.994 106 145.517 106H482C487.514 106 492 110.486 492 116V155.477C492 170.408 483.648 183.733 470.203 190.25L275.133 302.734C263.151 309.62 248.308 309.517 236.398 302.466C236.366 302.447 236.335 302.429 236.304 302.411L138.239 245.793L138.142 245.736C137.717 245.485 137.276 245.268 136.824 245.086L39.322 188.791C27.489 181.94 20.129 169.171 20.115 155.466C20.115 154.978 20.067 154.502 19.999 154.033V116C19.999 110.486 24.485 106 29.999 106H76.551C82.074 106 86.551 101.523 86.551 96C86.551 90.477 82.074 86 76.551 86H30C13.458 86 0 99.458 0 116V396C0 412.542 13.458 426 30 426H482C493.159 426 502.908 419.871 508.075 410.806C508.09 410.78 508.106 410.753 508.121 410.727C510.586 406.373 512 401.35 512 396V116C512 99.458 498.542 86 482 86ZM20 389.468V199.4C22.85 201.914 25.962 204.167 29.312 206.106L128.002 263.087C128.395 263.314 128.802 263.511 129.219 263.679L149.624 275.46L94.996 323.596C94.486 323.903 94 324.258 93.546 324.659L20 389.468ZM482 406H31.49L105.361 340.904C105.917 340.571 106.444 340.18 106.934 339.736L167.9 286.013L226.266 319.711C235.419 325.116 245.707 327.822 256 327.822C266.054 327.822 276.112 325.239 285.114 320.066L346.521 284.615L405.817 336.862C406.005 337.027 406.198 337.185 406.398 337.336C407.293 338.013 408.252 338.8 409.238 339.665L484.221 405.743C483.506 405.906 482.765 406 482 406ZM492.001 385.94L422.451 324.649C421.198 323.548 419.962 322.53 418.774 321.619L364.8 274.063L381.069 264.671C382.014 264.196 382.971 263.678 383.998 263.088L479.269 208.081C483.927 205.785 488.191 202.891 492.001 199.53V385.94Z" fill="white"/>
<path d="M293.268 209.41H262.233C256.71 209.41 252.233 213.887 252.233 219.41C252.233 224.933 256.71 229.41 262.233 229.41H293.268C298.791 229.41 303.268 224.933 303.268 219.41C303.268 213.887 298.791 209.41 293.268 209.41Z" fill="white"/>
<path d="M233.503 209.41H233.233C227.71 209.41 223.233 213.887 223.233 219.41C223.233 224.933 227.71 229.41 233.233 229.41H233.503C239.026 229.41 243.503 224.933 243.503 219.41C243.503 213.887 239.026 209.41 233.503 209.41Z" fill="white"/>
<path d="M293.268 176.411H218.733C213.21 176.411 208.733 180.888 208.733 186.411C208.733 191.934 213.21 196.411 218.733 196.411H293.268C298.791 196.411 303.268 191.934 303.268 186.411C303.268 180.888 298.791 176.411 293.268 176.411Z" fill="white"/>
</svg>
