<svg width="40" height="33" viewBox="0 0 40 33" fill="none" xmlns="http://www.w3.org/2000/svg">
<path d="M39.5746 13.2231L20.614 1.07587C20.2484 0.841669 19.7516 0.841669 19.3862 1.07587L0.425382 13.2231C-0.0377425 13.5199 -0.138368 14.0889 0.200773 14.4941C0.539913 14.8994 1.19031 14.9873 1.65335 14.6907L20 2.93668L38.3466 14.6906C38.5316 14.8092 38.7466 14.8663 38.9598 14.8663C39.2798 14.8663 39.5955 14.7374 39.7991 14.4941C40.1384 14.0889 40.0377 13.5199 39.5746 13.2231Z" fill="white"/>
<path d="M34.5505 14.8965C33.9766 14.8965 33.5112 15.3036 33.5112 15.8059V30.2809H25.197V22.3795C25.197 19.8721 22.8656 17.8323 20.0001 17.8323C17.1346 17.8323 14.8032 19.8722 14.8032 22.3795V30.281H6.4889V15.8059C6.4889 15.3037 6.02351 14.8966 5.4496 14.8966C4.8757 14.8966 4.41031 15.3037 4.41031 15.8059V31.1904C4.41031 31.6927 4.8757 32.0998 5.4496 32.0998H15.8425C16.3891 32.0998 16.8363 31.7303 16.8777 31.2612C16.8802 31.24 16.8818 31.2167 16.8818 31.1904V22.3796C16.8818 20.8751 18.2806 19.6511 20.0001 19.6511C21.7195 19.6511 23.1184 20.8751 23.1184 22.3796V31.1904C23.1184 31.2166 23.1199 31.2394 23.1224 31.2604C23.1634 31.7299 23.6108 32.0998 24.1577 32.0998H34.5506C35.1245 32.0998 35.5898 31.6927 35.5898 31.1904V15.8059C35.5898 15.3036 35.1245 14.8965 34.5505 14.8965Z" fill="white"/>
</svg>
