<svg width="512" height="512" viewBox="0 0 512 512" fill="none" xmlns="http://www.w3.org/2000/svg">
<g clip-path="url(#clip0)">
<path d="M465.241 232.835C469.117 220.517 469.983 207.296 467.748 194.598C467.014 190.431 463.741 187.173 459.571 186.457L458.912 186.345C452.681 185.3 446.413 185.011 440.23 185.426L454.138 171.518C496.526 129.13 517.207 70.6305 510.88 11.025L510.782 10.0977C510.288 5.41277 506.598 1.70435 501.915 1.18503C472.689 -2.0512 442.567 1.38153 414.814 11.1153C387.063 20.848 361.397 36.979 340.593 57.7628L326.609 71.7273C327.033 65.2889 326.693 58.7974 325.576 52.4332C324.845 48.2657 321.576 45.0054 317.406 44.2865L316.743 44.1723C291.064 39.8623 264.743 48.2837 246.331 66.6955L204.923 108.104C174.959 100.237 150.093 96.1714 127.737 96.7298C89.1546 97.6983 58.3463 112.458 24.7218 146.083C20.8069 149.998 20.8069 156.346 24.7218 160.261L88.7435 224.283L60.1047 252.922C60.0055 253.013 59.9012 253.096 59.805 253.192L43.279 269.719C38.2261 274.772 35.6185 281.355 35.4411 287.992C31.0319 289.768 26.9866 292.423 23.5719 295.838C6.13561 313.273 0.645656 353.981 0.0762087 358.565C-0.305762 361.64 0.756939 364.718 2.95151 366.904C4.84332 368.786 7.39079 369.825 10.0245 369.825C10.4496 369.825 10.8777 369.798 11.3037 369.743C11.7539 369.684 22.4882 368.284 35.2847 364.916C53.3416 360.156 66.3626 353.877 73.987 346.253C77.4007 342.839 80.0554 338.794 81.833 334.386C88.2021 334.216 94.5182 331.8 99.4848 327.137L99.4988 355.607L85.9394 369.166C80.8866 374.22 78.2789 380.803 78.1015 387.439C73.6923 389.215 69.647 391.871 66.2323 395.284C48.797 412.72 43.3071 453.428 42.7376 458.012C42.3556 461.087 43.4183 464.164 45.6129 466.351C47.5047 468.233 50.0522 469.271 52.6859 469.271C53.111 469.271 53.5391 469.244 53.9651 469.189C54.4153 469.131 65.1486 467.731 77.9451 464.362C96.002 459.603 109.023 453.324 116.648 445.7C120.062 442.286 122.717 438.24 124.493 433.831C131.13 433.654 137.713 431.046 142.767 425.993L156.299 412.46H184.908C180.214 417.434 177.782 423.772 177.611 430.163C173.202 431.941 169.156 434.595 165.742 438.009C148.306 455.444 142.816 496.153 142.246 500.737C141.864 503.812 142.927 506.89 145.122 509.077C147.014 510.958 149.561 511.997 152.195 511.997C152.62 511.997 153.048 511.97 153.474 511.915C153.924 511.857 164.658 510.456 177.455 507.088C195.514 502.327 208.535 496.048 216.157 488.425C219.568 485.015 222.222 480.974 223.999 476.569C230.905 476.389 237.373 473.622 242.277 468.718L258.804 452.191C258.948 452.047 259.075 451.893 259.209 451.743L287.705 423.246L351.699 487.24C353.579 489.12 356.129 490.177 358.788 490.177C361.446 490.177 363.996 489.12 365.877 487.24C399.5 453.616 414.261 422.807 415.229 384.225C415.791 361.867 411.729 337.018 403.87 307.082L445.35 265.603C454.463 256.492 461.338 245.167 465.241 232.835V232.835ZM260.509 80.8745C272.738 68.6454 289.625 62.2843 306.653 63.1976C307.031 70.441 306.117 77.7436 303.939 84.6501C301.008 93.9137 295.837 102.431 288.986 109.282C288.933 109.335 288.889 109.393 288.838 109.446L277.562 120.706L270.301 127.965C254.798 122.839 240.454 118.274 227.07 114.313L260.509 80.8745ZM128.239 116.776C149.766 116.234 174.435 120.553 204.858 128.826C205.127 128.913 205.4 128.985 205.675 129.048C220.46 133.089 236.607 138.059 254.406 143.854L145.52 252.705L110.065 217.25C110.047 217.231 110.031 217.211 110.013 217.192C109.994 217.173 109.973 217.158 109.954 217.14L46.1192 153.306C73.188 128.25 97.5349 117.546 128.239 116.776V116.776ZM156.329 392.41L119.55 355.631L119.536 327.107L184.838 392.41H156.329ZM209.042 388.258L123.679 302.893L145.519 281.06L230.88 366.42L209.042 388.258ZM102.922 238.462L131.341 266.881L109.458 288.757L81.0419 260.342L102.922 238.462ZM30.1777 345.527C27.4458 346.246 24.8071 346.867 22.3679 347.397C25.4336 333.376 30.7712 316.996 37.7509 310.016C39.1274 308.639 40.7004 307.564 42.4138 306.801C42.6945 307.108 42.9812 307.413 43.279 307.711L62.1159 326.548C62.4136 326.846 62.7174 327.132 63.0252 327.413C62.2622 329.126 61.1865 330.699 59.81 332.076C54.8704 337.015 44.3457 341.793 30.1777 345.527V345.527ZM81.1101 314.365C79.2905 314.365 77.5801 313.656 76.2929 312.37L57.456 293.533C54.8003 290.876 54.8003 286.554 57.456 283.898L66.8479 274.507L95.3192 302.978L85.9264 312.371C84.6411 313.656 82.9307 314.365 81.1101 314.365V314.365ZM72.8381 444.974C70.1062 445.693 67.4675 446.314 65.0293 446.843C68.095 432.823 73.4316 416.442 80.4103 409.462C81.7878 408.086 83.3608 407.01 85.0742 406.247C85.3549 406.555 85.6416 406.86 85.9394 407.158L104.777 425.994C105.075 426.292 105.379 426.579 105.687 426.86C104.924 428.573 103.848 430.146 102.471 431.523C97.5308 436.462 87.0061 441.239 72.8381 444.974ZM118.954 411.815L100.117 392.979C97.4617 390.323 97.4617 386 100.117 383.344L109.512 373.949L137.984 402.421L128.59 411.814C125.936 414.472 121.613 414.474 118.954 411.815V411.815ZM172.349 487.699C169.631 488.415 167.002 489.034 164.573 489.561C167.408 476.58 172.512 459.597 179.922 452.187C181.299 450.811 182.872 449.735 184.585 448.972C184.866 449.28 185.152 449.584 185.45 449.882L204.287 468.719C204.584 469.016 204.889 469.304 205.196 469.585C204.433 471.299 203.358 472.871 201.981 474.247C197.043 479.187 186.518 483.965 172.349 487.699V487.699ZM223.282 456.537C221.463 456.537 219.752 455.828 218.465 454.541L199.628 435.704C196.973 433.048 196.973 428.725 199.628 426.07L209.063 416.635L237.535 445.106L228.1 454.541C226.812 455.828 225.102 456.537 223.282 456.537V456.537ZM251.692 430.907L223.221 402.436L245.058 380.599L273.529 409.07L251.692 430.907ZM395.186 383.723C394.415 414.426 383.713 438.774 358.657 465.842L294.845 402.03C294.829 402.014 294.815 401.996 294.799 401.978C294.783 401.962 294.765 401.948 294.748 401.932L259.236 366.42L282.317 343.338C286.232 339.424 286.232 333.075 282.317 329.159C278.401 325.244 272.055 325.244 268.138 329.159L245.057 352.241L159.698 266.883L291.733 134.89L354.761 71.9488C391.131 35.6155 440.602 17.0784 491.562 20.3978C494.904 71.4225 476.32 120.977 439.957 157.339L325 272.3C321.085 276.215 321.085 282.563 325 286.478C328.916 290.393 335.262 290.393 339.179 286.478L368.107 257.549C373.904 275.357 378.876 291.511 382.919 306.301C382.984 306.59 383.06 306.877 383.152 307.16C391.414 337.556 395.727 362.208 395.186 383.723V383.723ZM397.662 284.935C393.699 271.539 389.129 257.181 383.996 241.66L401.904 223.753C402.182 223.529 402.451 223.29 402.708 223.033C414.923 210.817 431.793 204.461 448.828 205.373C449.206 212.599 448.293 219.894 446.119 226.802C443.187 236.065 438.019 244.58 431.173 251.427L397.662 284.935Z" fill="white"/>
<path d="M365.424 176.655C373.139 176.655 380.856 173.718 386.73 167.845C398.477 156.097 398.477 136.981 386.73 125.233C374.981 113.485 355.866 113.486 344.117 125.233C332.371 136.981 332.371 156.097 344.117 167.845C349.992 173.718 357.708 176.655 365.424 176.655ZM358.296 139.411C360.261 137.446 362.842 136.464 365.424 136.464C368.004 136.464 370.586 137.446 372.551 139.41C376.481 143.34 376.481 149.734 372.551 153.665C368.622 157.595 362.226 157.594 358.295 153.665C354.366 149.735 354.366 143.341 358.296 139.411V139.411Z" fill="white"/>
<path d="M471.197 439.801C476.736 439.801 481.227 435.31 481.227 429.771C481.227 424.232 476.736 419.742 471.197 419.742C465.658 419.742 461.168 424.232 461.168 429.771C461.168 435.31 465.658 439.801 471.197 439.801Z" fill="white"/>
<path d="M491.248 499.953C496.787 499.953 501.278 495.463 501.278 489.924C501.278 484.385 496.787 479.894 491.248 479.894C485.709 479.894 481.219 484.385 481.219 489.924C481.219 495.463 485.709 499.953 491.248 499.953Z" fill="white"/>
<path d="M151.385 47.7383C156.924 47.7383 161.414 43.2479 161.414 37.7088C161.414 32.1697 156.924 27.6793 151.385 27.6793C145.846 27.6793 141.355 32.1697 141.355 37.7088C141.355 43.2479 145.846 47.7383 151.385 47.7383Z" fill="white"/>
<path d="M19.0484 57.7598H29.0739V67.7853C29.0739 73.3223 33.5633 77.8107 39.0994 77.8107C44.6354 77.8107 49.1248 73.3223 49.1248 67.7853V57.7598H59.1503C64.6864 57.7598 69.1758 53.2714 69.1758 47.7343C69.1758 42.1973 64.6864 37.7088 59.1503 37.7088H49.1248V27.6834C49.1248 22.1463 44.6354 17.6579 39.0994 17.6579C33.5633 17.6579 29.0739 22.1463 29.0739 27.6834V37.7088H19.0484C13.5124 37.7088 9.02295 42.1973 9.02295 47.7343C9.02295 53.2714 13.5124 57.7598 19.0484 57.7598Z" fill="white"/>
<path d="M304.026 316.707C309.565 316.707 314.056 312.216 314.056 306.676C314.056 301.137 309.565 296.646 304.026 296.646C298.486 296.646 293.995 301.137 293.995 306.676C293.995 312.216 298.486 316.707 304.026 316.707Z" fill="white"/>
</g>
<defs>
<clipPath id="clip0">
<rect width="512" height="512" fill="white"/>
</clipPath>
</defs>
</svg>
